<svg xmlns="http://www.w3.org/2000/svg" version="1.1" xmlns:xlink="http://www.w3.org/1999/xlink" xmlns:svgjs="http://svgjs.dev/svgjs" width="1500" height="1500" viewBox="0 0 1500 1500"><rect width="1500" height="1500" fill="#ffffff"></rect><g transform="matrix(0.6666666666666666,0,0,0.6666666666666666,249.39393939393938,623.672858511727)"><svg viewBox="0 0 396 100" data-background-color="#ffffff" preserveAspectRatio="xMidYMid meet" height="378" width="1500" xmlns="http://www.w3.org/2000/svg" xmlns:xlink="http://www.w3.org/1999/xlink"><g id="tight-bounds" transform="matrix(1,0,0,1,0.2400000000000091,0.12981805090200282)"><svg viewBox="0 0 395.52 99.74036389819601" height="99.74036389819601" width="395.52"><g><svg viewBox="0 0 397.4975999999999 100.23906571768697" height="99.74036389819601" width="395.52"><g><svg viewBox="0 0 397.4975999999999 100.23906571768697" height="100.23906571768697" width="397.4975999999999"><g id="textblocktransform"><svg viewBox="0 0 397.4975999999999 100.23906571768697" height="100.23906571768697" width="397.4975999999999" id="textblock"><g></g><g transform="matrix(1,0,0,1,0.9887999999999693,0)"><svg viewBox="0 0 395.52 62.03767438353065" height="62.03767438353065" width="395.52"><g transform="matrix(1,0,0,1,0,0)"><svg width="395.52" viewBox="3.91 -38.38 323.71999999999997 50.78" height="62.03767438353065" data-palette-color="url(#a81a6398-14d1-45f2-b860-4e1eb78d7dff)"></svg></g></svg></g><g transform="matrix(1,0,0,1,165.28780799999993,80.81334129830717)"><svg viewBox="0 0 232.209792 19.42572441937981" height="19.42572441937981" width="232.209792"><g transform="matrix(1,0,0,1,0,0)"><svg width="232.209792" viewBox="3.91 -38.38 599.09 50.120000000000005" height="19.42572441937981" data-palette-color="url(#42345373-ebec-4afe-8cae-f2db7dbc3496)"></svg></g></svg></g></svg></g></svg></g></svg></g><defs></defs><mask id="6bb3b419-61b7-4e2d-a888-96cb70040840"><g id="SvgjsG2601"><svg viewBox="0 0 395.52 99.74036389819601" height="99.74036389819601" width="395.52"><g><svg viewBox="0 0 397.4975999999999 100.23906571768697" height="99.74036389819601" width="395.52"><g><svg viewBox="0 0 397.4975999999999 100.23906571768697" height="100.23906571768697" width="397.4975999999999"><g id="SvgjsG2600"><svg viewBox="0 0 397.4975999999999 100.23906571768697" height="100.23906571768697" width="397.4975999999999" id="SvgjsSvg2599"><g><rect width="397.4975999999999" height="5.594621498786759" x="0" y="68.62819709152552" fill="white" opacity="1" stroke-width="0" stroke="transparent" fill-opacity="1" class="rect-yte-0" rx="1%" id="SvgjsRect2598" data-palette-color="url(#a81a6398-14d1-45f2-b860-4e1eb78d7dff)"></rect></g><g transform="matrix(1,0,0,1,0.9887999999999693,0)"><svg viewBox="0 0 395.52 62.03767438353065" height="62.03767438353065" width="395.52"><g transform="matrix(1,0,0,1,0,0)"><svg width="395.52" viewBox="3.91 -38.38 323.71999999999997 50.78" height="62.03767438353065" data-palette-color="url(#a81a6398-14d1-45f2-b860-4e1eb78d7dff)"><path d="M26.29-21.04L26.29-31.1Q26.29-31.81 26.54-32.18L26.54-32.18Q27.64-33.79 29.61-35.57L29.61-35.57Q29.98-35.86 30.25-35.86L30.25-35.86Q30.54-35.86 30.86-35.57L30.86-35.57Q31.93-34.64 32.67-33.8 33.4-32.96 33.94-32.18L33.94-32.18Q34.18-31.79 34.18-31.1L34.18-31.1 34.18-1.29Q34.18-0.56 33.87-0.28 33.57 0 32.84 0L32.84 0 27.64 0Q26.9 0 26.6-0.28 26.29-0.56 26.29-1.29L26.29-1.29 26.29-14.26 11.79-14.26 11.79-1.29Q11.79-0.56 11.49-0.28 11.18 0 10.45 0L10.45 0 5.25 0Q4.52 0 4.21-0.28 3.91-0.56 3.91-1.29L3.91-1.29 3.91-33.72Q3.91-34.45 4.21-34.73 4.52-35.01 5.25-35.01L5.25-35.01 10.45-35.01Q11.18-35.01 11.49-34.73 11.79-34.45 11.79-33.72L11.79-33.72 11.79-21.04 26.29-21.04ZM47.85 0.61L47.85 0.61Q44.26 0.61 42.15-1.4 40.04-3.42 40.04-6.96L40.04-6.96Q40.04-8.79 40.71-10.36 41.38-11.94 43.05-13.15 44.72-14.36 47.74-15.09 50.75-15.82 55.44-15.94L55.44-15.94Q55.44-18.16 54.33-19.14 53.22-20.12 51-20.12L51-20.12Q49-20.12 47.73-19.43 46.46-18.75 46.14-18.51L46.14-18.51Q45.8-18.21 45.31-18.29L45.31-18.29Q44.65-18.38 43.91-18.63 43.16-18.87 42.31-19.19L42.31-19.19Q42.19-19.24 42.04-19.35 41.89-19.46 41.87-19.68L41.87-19.68Q41.87-19.8 41.89-19.98 41.92-20.17 42.01-20.65L42.01-20.65Q42.11-21.14 42.31-21.86 42.5-22.58 42.67-22.97L42.67-22.97Q42.89-23.39 43.41-23.75L43.41-23.75Q43.82-24.1 45.92-24.85 48.02-25.61 52-25.61L52-25.61Q62.96-25.61 62.96-14.94L62.96-14.94 62.96-1.12Q62.96-0.66 62.71-0.33 62.45 0 61.84 0L61.84 0 58.18 0Q57.79 0 57.48-0.11 57.18-0.22 56.91-0.54L56.91-0.54 55.39-2.49 55.22-2.49Q54.1-0.85 52.21-0.12 50.31 0.61 47.85 0.61ZM50.53-5.05L50.53-5.05Q52.78-5.05 53.93-6.2 55.08-7.35 55.39-8.57L55.39-8.57 55.39-11.28Q52-11.28 50.3-10.75 48.61-10.23 48.04-9.39 47.48-8.54 47.48-7.57L47.48-7.57Q47.48-6.15 48.36-5.6 49.24-5.05 50.53-5.05ZM77.27-22.17L77.27-20.36 77.36-20.36Q79.19-25.44 83.95-25.44L83.95-25.44Q84.57-25.44 84.96-25.38 85.35-25.32 85.49-25.27L85.49-25.27Q85.86-25.15 85.86-24.71L85.86-24.71 85.86-18.82Q85.86-18.07 84.98-18.41L84.98-18.41Q84.69-18.53 84.14-18.66 83.59-18.8 82.61-18.8L82.61-18.8Q80.1-18.8 78.68-16.96 77.27-15.11 77.27-11.94L77.27-11.94 77.27-1.29Q77.27-0.56 76.96-0.28 76.66 0 75.92 0L75.92 0 70.89 0Q70.16 0 69.86-0.28 69.55-0.56 69.55-1.29L69.55-1.29 69.55-21.75Q69.55-22.34 69.79-22.66L69.79-22.66Q70.31-23.34 71.03-24.05 71.75-24.76 72.8-25.56L72.8-25.56Q72.99-25.71 73.19-25.76 73.38-25.81 73.53-25.81L73.53-25.81Q73.87-25.81 74.21-25.56L74.21-25.56Q76.24-23.97 77.05-22.85L77.05-22.85Q77.27-22.56 77.27-22.17L77.27-22.17ZM101.48 0.61L101.48 0.61Q95.33 0.61 91.74-2.66 88.15-5.93 88.15-12.4L88.15-12.4Q88.15-19.04 91.87-22.33 95.6-25.61 101.82-25.61L101.82-25.61Q107.83-25.61 111.44-22.38 115.06-19.14 115.06-12.84L115.06-12.84Q115.06-6.27 111.44-2.83 107.83 0.61 101.48 0.61ZM101.73-5.3L101.73-5.3Q104.41-5.3 105.78-6.97 107.15-8.64 107.15-12.7L107.15-12.7Q107.15-16.55 105.77-18.13 104.39-19.7 101.68-19.7L101.68-19.7Q99.06-19.7 97.56-18.01 96.06-16.31 96.06-12.5L96.06-12.5Q96.06-8.52 97.49-6.91 98.92-5.3 101.73-5.3ZM130.19 0.61L130.19 0.61Q122.04 0.61 122.04-7.86L122.04-7.86 122.04-19.31 119.28-19.31Q118.54-19.31 118.26-19.62 117.98-19.92 117.98-20.65L117.98-20.65 117.98-23.66Q117.98-24.39 118.26-24.69 118.54-25 119.28-25L119.28-25 122.04-25 122.04-28.93Q122.04-29.52 122.28-29.83L122.28-29.83Q123.31-31.18 125.28-32.74L125.28-32.74Q125.62-32.98 125.89-32.98L125.89-32.98Q126.19-32.98 126.48-32.74L126.48-32.74Q127.53-31.93 128.25-31.23 128.97-30.52 129.48-29.83L129.48-29.83Q129.73-29.52 129.73-28.93L129.73-28.93 129.73-25 134.05-25Q134.78-25 135.06-24.69 135.34-24.39 135.34-23.66L135.34-23.66 135.34-20.65Q135.34-19.92 135.06-19.62 134.78-19.31 134.05-19.31L134.05-19.31 129.73-19.31 129.73-9.2Q129.73-5.3 132.56-5.3L132.56-5.3Q133-5.3 133.36-5.38 133.73-5.47 134-5.57L134-5.57Q134.51-5.76 134.72-5.71 134.93-5.66 135.1-5.18L135.1-5.18 136.51-1.39Q136.73-0.78 136.22-0.51L136.22-0.51Q135.85-0.34 134.45 0.13 133.05 0.61 130.19 0.61ZM148.3-16.46L148.3-1.29Q148.3-0.56 148-0.28 147.69 0 146.96 0L146.96 0 141.93 0Q141.2 0 140.89-0.28 140.59-0.56 140.59-1.29L140.59-1.29 140.59-34.33Q140.59-34.91 140.83-35.23L140.83-35.23Q141.86-36.57 143.84-38.13L143.84-38.13Q144.18-38.38 144.45-38.38L144.45-38.38Q144.76-38.38 145.06-38.13L145.06-38.13Q146.11-37.33 146.83-36.62 147.55-35.91 148.06-35.23L148.06-35.23Q148.3-34.91 148.3-34.33L148.3-34.33 148.3-22.49 148.4-22.49Q148.94-23.19 149.79-23.91 150.65-24.63 152.07-25.12 153.5-25.61 155.72-25.61L155.72-25.61Q157.97-25.61 160.05-24.68 162.12-23.75 163.44-21.56 164.76-19.36 164.76-15.55L164.76-15.55 164.76-1.29Q164.76-0.56 164.45-0.28 164.15 0 163.42 0L163.42 0 158.39 0Q157.65 0 157.35-0.28 157.04-0.56 157.04-1.29L157.04-1.29 157.04-14.21Q157.04-16.92 155.92-18.15 154.8-19.38 152.87-19.38L152.87-19.38Q150.96-19.38 149.91-18.55 148.86-17.72 148.3-16.46L148.3-16.46ZM214.12-14.43L214.12-2.39Q213.53-1.98 212.03-1.26 210.53-0.54 207.89 0.02 205.26 0.59 201.28 0.59L201.28 0.59Q195.93 0.59 192.06-1.18 188.19-2.95 186.12-6.92 184.04-10.89 184.04-17.43L184.04-17.43Q184.04-26.15 188.51-30.87 192.98-35.6 200.96-35.6L200.96-35.6Q204.77-35.6 207.04-34.86 209.31-34.13 210.48-33.15 211.65-32.18 212.12-31.45L212.12-31.45Q212.29-31.18 212.36-30.97 212.43-30.76 212.46-30.32L212.46-30.32Q212.53-29.74 212.49-28.61 212.46-27.49 212.31-26.64L212.31-26.64Q212.21-26.1 211.99-25.93L211.99-25.93Q211.9-25.83 211.65-25.76 211.41-25.68 210.92-25.68L210.92-25.68Q210.14-25.68 209.1-25.74 208.06-25.81 207.58-25.88L207.58-25.88Q206.99-25.98 206.73-26.16 206.48-26.34 206.18-26.73L206.18-26.73Q205.89-27.12 205.38-27.65 204.87-28.17 203.83-28.59 202.79-29 200.96-29L200.96-29Q196.93-29 194.64-26.09 192.34-23.17 192.34-17.7L192.34-17.7Q192.34-11.96 194.72-8.98 197.1-6.01 201.57-6.01L201.57-6.01Q203.82-6.01 204.88-6.34 205.94-6.67 206.23-6.84L206.23-6.84 206.23-14.43Q206.23-15.14 206.48-15.5L206.48-15.5Q207.58-17.11 209.55-18.9L209.55-18.9Q209.92-19.19 210.19-19.19L210.19-19.19Q210.48-19.19 210.8-18.9L210.8-18.9Q211.87-17.97 212.6-17.13 213.34-16.28 213.87-15.5L213.87-15.5Q214.12-15.11 214.12-14.43L214.12-14.43ZM227.81-22.17L227.81-20.36 227.91-20.36Q229.74-25.44 234.5-25.44L234.5-25.44Q235.11-25.44 235.5-25.38 235.89-25.32 236.04-25.27L236.04-25.27Q236.41-25.15 236.41-24.71L236.41-24.71 236.41-18.82Q236.41-18.07 235.53-18.41L235.53-18.41Q235.23-18.53 234.68-18.66 234.14-18.8 233.16-18.8L233.16-18.8Q230.64-18.8 229.23-16.96 227.81-15.11 227.81-11.94L227.81-11.94 227.81-1.29Q227.81-0.56 227.51-0.28 227.2 0 226.47 0L226.47 0 221.44 0Q220.71 0 220.4-0.28 220.1-0.56 220.1-1.29L220.1-1.29 220.1-21.75Q220.1-22.34 220.34-22.66L220.34-22.66Q220.85-23.34 221.57-24.05 222.29-24.76 223.34-25.56L223.34-25.56Q223.54-25.71 223.73-25.76 223.93-25.81 224.08-25.81L224.08-25.81Q224.42-25.81 224.76-25.56L224.76-25.56Q226.79-23.97 227.59-22.85L227.59-22.85Q227.81-22.56 227.81-22.17L227.81-22.17ZM252.03 0.61L252.03 0.61Q245.88 0.61 242.29-2.66 238.7-5.93 238.7-12.4L238.7-12.4Q238.7-19.04 242.42-22.33 246.14-25.61 252.37-25.61L252.37-25.61Q258.38-25.61 261.99-22.38 265.6-19.14 265.6-12.84L265.6-12.84Q265.6-6.27 261.99-2.83 258.38 0.61 252.03 0.61ZM252.27-5.3L252.27-5.3Q254.96-5.3 256.33-6.97 257.69-8.64 257.69-12.7L257.69-12.7Q257.69-16.55 256.31-18.13 254.93-19.7 252.22-19.7L252.22-19.7Q249.61-19.7 248.11-18.01 246.61-16.31 246.61-12.5L246.61-12.5Q246.61-8.52 248.04-6.91 249.46-5.3 252.27-5.3ZM279.56 0.61L279.56 0.61Q270.87 0.61 270.87-9.91L270.87-9.91 270.85-22.31Q270.85-22.9 271.09-23.22L271.09-23.22Q272.12-24.56 274.1-26.12L274.1-26.12Q274.44-26.37 274.71-26.37L274.71-26.37Q275.02-26.37 275.32-26.12L275.32-26.12Q276.37-25.32 277.09-24.61 277.81-23.9 278.32-23.22L278.32-23.22Q278.56-22.9 278.56-22.31L278.56-22.31 278.56-10.6Q278.56-5.3 282.76-5.3L282.76-5.3Q284.84-5.3 286.08-6.75 287.33-8.2 287.33-10.69L287.33-10.69 287.33-22.31Q287.33-22.9 287.57-23.22L287.57-23.22Q288.6-24.56 290.58-26.12L290.58-26.12Q290.92-26.37 291.19-26.37L291.19-26.37Q291.5-26.37 291.8-26.12L291.8-26.12Q292.85-25.32 293.57-24.61 294.29-23.9 294.8-23.22L294.8-23.22Q295.04-22.9 295.04-22.31L295.04-22.31 295.04-1.12Q295.04-0.66 294.73-0.33 294.41 0 293.92 0L293.92 0 290.26 0Q289.87 0 289.56-0.11 289.26-0.22 288.99-0.54L288.99-0.54 287.48-2.49 287.3-2.49Q286.91-1.93 286.1-1.2 285.28-0.46 283.73 0.07 282.18 0.61 279.56 0.61ZM317.18-25.61L317.18-25.61Q320.75-25.61 323.06-24.01 325.36-22.41 326.5-19.62 327.63-16.82 327.63-13.21L327.63-13.21Q327.63-9.3 326.3-6.18 324.97-3.05 322.38-1.22 319.8 0.61 315.96 0.61L315.96 0.61Q313.99 0.61 312.7 0.16 311.42-0.29 310.65-0.92 309.88-1.54 309.45-2.05L309.45-2.05 309.35-2.05 309.35 8.35Q309.35 8.94 309.1 9.25L309.1 9.25Q308.08 10.6 306.1 12.16L306.1 12.16Q305.76 12.4 305.49 12.4L305.49 12.4Q305.2 12.4 304.88 12.16L304.88 12.16Q303.83 11.35 303.11 10.64 302.39 9.94 301.88 9.25L301.88 9.25Q301.63 8.94 301.63 8.35L301.63 8.35 301.63-21.75Q301.63-22.34 301.88-22.66L301.88-22.66Q302.39-23.34 303.11-24.05 303.83-24.76 304.88-25.56L304.88-25.56Q305.2-25.81 305.54-25.81L305.54-25.81Q305.86-25.81 306.2-25.56L306.2-25.56Q307.22-24.76 307.96-24.02 308.69-23.29 309.25-22.51L309.25-22.51 309.37-22.51Q309.79-23.02 310.64-23.75 311.5-24.49 313.07-25.05 314.65-25.61 317.18-25.61ZM314.18-5.62L314.18-5.62Q316.82-5.62 318.27-7.46 319.72-9.3 319.72-12.79L319.72-12.79Q319.72-19.38 314.3-19.38L314.3-19.38Q312.01-19.38 310.91-18.44 309.81-17.5 309.35-16.46L309.35-16.46 309.35-11.16Q309.35-8.79 310.57-7.2 311.79-5.62 314.18-5.62Z" opacity="1" transform="matrix(1,0,0,1,0,0)" fill="white" class="wordmark-text-0" id="SvgjsPath2597"></path></svg></g></svg></g><g transform="matrix(1,0,0,1,165.28780799999993,80.81334129830717)"><svg viewBox="0 0 232.209792 19.42572441937981" height="19.42572441937981" width="232.209792"><g transform="matrix(1,0,0,1,0,0)"><svg width="232.209792" viewBox="3.91 -38.38 599.09 50.120000000000005" height="19.42572441937981" data-palette-color="url(#42345373-ebec-4afe-8cae-f2db7dbc3496)"><path d="M11.79-31.1L11.79-1.29Q11.79-0.56 11.49-0.28 11.18 0 10.45 0L10.45 0 5.25 0Q4.52 0 4.21-0.28 3.91-0.56 3.91-1.29L3.91-1.29 3.91-31.1Q3.91-31.81 4.15-32.18L4.15-32.18Q5.25-33.79 7.23-35.57L7.23-35.57Q7.59-35.86 7.86-35.86L7.86-35.86Q8.15-35.86 8.47-35.57L8.47-35.57Q9.55-34.64 10.28-33.8 11.01-32.96 11.55-32.18L11.55-32.18Q11.79-31.79 11.79-31.1L11.79-31.1ZM43.16-15.55L43.16-15.55 43.16-1.29Q43.16-0.56 42.86-0.28 42.55 0 41.82 0L41.82 0 36.79 0Q36.06 0 35.75-0.28 35.45-0.56 35.45-1.29L35.45-1.29 35.45-14.28Q35.45-16.94 34.32-18.16 33.2-19.38 31.27-19.38L31.27-19.38Q29.34-19.38 28.31-18.55 27.27-17.72 26.71-16.46L26.71-16.46 26.71-1.29Q26.71-0.56 26.4-0.28 26.1 0 25.36 0L25.36 0 20.33 0Q19.6 0 19.3-0.28 18.99-0.56 18.99-1.29L18.99-1.29 18.99-21.75Q18.99-22.34 19.24-22.66L19.24-22.66Q19.75-23.34 20.47-24.05 21.19-24.76 22.24-25.56L22.24-25.56Q22.56-25.81 22.85-25.81L22.85-25.81Q23.12-25.81 23.46-25.56L23.46-25.56Q24.48-24.76 25.22-24.02 25.95-23.29 26.51-22.51L26.51-22.51 26.63-22.51Q27.05-23.05 27.88-23.77 28.71-24.49 30.21-25.05 31.71-25.61 34.06-25.61L34.06-25.61Q36.35-25.61 38.43-24.68 40.5-23.75 41.83-21.56 43.16-19.36 43.16-15.55ZM73.92-15.55L73.92-15.55 73.92-1.29Q73.92-0.56 73.62-0.28 73.31 0 72.58 0L72.58 0 67.55 0Q66.82 0 66.51-0.28 66.21-0.56 66.21-1.29L66.21-1.29 66.21-14.28Q66.21-16.94 65.08-18.16 63.96-19.38 62.03-19.38L62.03-19.38Q60.1-19.38 59.06-18.55 58.03-17.72 57.47-16.46L57.47-16.46 57.47-1.29Q57.47-0.56 57.16-0.28 56.86 0 56.12 0L56.12 0 51.09 0Q50.36 0 50.06-0.28 49.75-0.56 49.75-1.29L49.75-1.29 49.75-21.75Q49.75-22.34 50-22.66L50-22.66Q50.51-23.34 51.23-24.05 51.95-24.76 53-25.56L53-25.56Q53.32-25.81 53.61-25.81L53.61-25.81Q53.88-25.81 54.22-25.56L54.22-25.56Q55.24-24.76 55.98-24.02 56.71-23.29 57.27-22.51L57.27-22.51 57.39-22.51Q57.81-23.05 58.64-23.77 59.47-24.49 60.97-25.05 62.47-25.61 64.81-25.61L64.81-25.61Q67.11-25.61 69.18-24.68 71.26-23.75 72.59-21.56 73.92-19.36 73.92-15.55ZM92.5 0.61L92.5 0.61Q86.35 0.61 82.76-2.66 79.17-5.93 79.17-12.4L79.17-12.4Q79.17-19.04 82.89-22.33 86.61-25.61 92.84-25.61L92.84-25.61Q98.85-25.61 102.46-22.38 106.07-19.14 106.07-12.84L106.07-12.84Q106.07-6.27 102.46-2.83 98.85 0.61 92.5 0.61ZM92.74-5.3L92.74-5.3Q95.43-5.3 96.79-6.97 98.16-8.64 98.16-12.7L98.16-12.7Q98.16-16.55 96.78-18.13 95.4-19.7 92.69-19.7L92.69-19.7Q90.08-19.7 88.58-18.01 87.08-16.31 87.08-12.5L87.08-12.5Q87.08-8.52 88.51-6.91 89.93-5.3 92.74-5.3ZM116.59-2.27L116.59-2.27Q115.25-4.39 113.94-7.17 112.64-9.94 111.57-12.78 110.51-15.63 109.88-17.98 109.24-20.34 109.24-21.61L109.24-21.61Q109.24-22.09 109.51-22.41L109.51-22.41Q110.63-23.8 112.71-25.32L112.71-25.32Q113.08-25.56 113.37-25.56L113.37-25.56Q113.69-25.56 114.03-25.32L114.03-25.32Q115.15-24.51 115.92-23.8 116.69-23.1 117.23-22.41L117.23-22.41Q117.49-22.09 117.49-21.51L117.49-21.51 117.49-21.63Q117.49-20.04 118.07-17.47 118.64-14.89 119.64-12.04 120.64-9.18 121.96-6.79L121.96-6.79 122.08-6.79Q123.18-8.59 124.04-10.69 124.89-12.79 125.48-14.89 126.06-16.99 126.37-18.75 126.67-20.51 126.67-21.61L126.67-21.61 126.67-21.51Q126.67-22.09 126.92-22.41L126.92-22.41Q127.48-23.1 128.24-23.8 128.99-24.51 130.07-25.32L130.07-25.32Q130.41-25.56 130.7-25.56L130.7-25.56Q131.04-25.56 131.34-25.32L131.34-25.32Q132.44-24.51 133.19-23.8 133.95-23.1 134.49-22.41L134.49-22.41Q134.73-22.09 134.73-21.56L134.73-21.56Q134.71-20.24 134.05-17.86 133.39-15.48 132.28-12.63 131.17-9.79 129.8-7.04 128.43-4.3 127.02-2.27L127.02-2.27Q126.16-1.03 125.48-0.51 124.79 0 123.11 0L123.11 0 120.52 0Q118.76 0 118.09-0.49 117.42-0.98 116.59-2.27ZM109.24-21.51L109.24-21.63 109.24-21.61Q109.24-21.56 109.24-21.51L109.24-21.51ZM134.73-21.61L134.73-21.61 134.73-21.51 134.73-21.56Q134.73-21.58 134.73-21.61ZM145.72 0.61L145.72 0.61Q142.13 0.61 140.01-1.4 137.9-3.42 137.9-6.96L137.9-6.96Q137.9-8.79 138.57-10.36 139.25-11.94 140.92-13.15 142.59-14.36 145.61-15.09 148.62-15.82 153.31-15.94L153.31-15.94Q153.31-18.16 152.2-19.14 151.09-20.12 148.86-20.12L148.86-20.12Q146.86-20.12 145.59-19.43 144.32-18.75 144.01-18.51L144.01-18.51Q143.66-18.21 143.18-18.29L143.18-18.29Q142.52-18.38 141.77-18.63 141.03-18.87 140.17-19.19L140.17-19.19Q140.05-19.24 139.9-19.35 139.76-19.46 139.73-19.68L139.73-19.68Q139.73-19.8 139.76-19.98 139.78-20.17 139.88-20.65L139.88-20.65Q139.98-21.14 140.17-21.86 140.37-22.58 140.54-22.97L140.54-22.97Q140.76-23.39 141.27-23.75L141.27-23.75Q141.69-24.1 143.79-24.85 145.89-25.61 149.87-25.61L149.87-25.61Q160.83-25.61 160.83-14.94L160.83-14.94 160.83-1.12Q160.83-0.66 160.57-0.33 160.31 0 159.7 0L159.7 0 156.04 0Q155.65 0 155.35-0.11 155.04-0.22 154.77-0.54L154.77-0.54 153.26-2.49 153.09-2.49Q151.97-0.85 150.07-0.12 148.18 0.61 145.72 0.61ZM148.4-5.05L148.4-5.05Q150.65-5.05 151.79-6.2 152.94-7.35 153.26-8.57L153.26-8.57 153.26-11.28Q149.87-11.28 148.17-10.75 146.47-10.23 145.91-9.39 145.35-8.54 145.35-7.57L145.35-7.57Q145.35-6.15 146.23-5.6 147.11-5.05 148.4-5.05ZM177.3 0.61L177.3 0.61Q169.15 0.61 169.15-7.86L169.15-7.86 169.15-19.31 166.39-19.31Q165.66-19.31 165.38-19.62 165.1-19.92 165.1-20.65L165.1-20.65 165.1-23.66Q165.1-24.39 165.38-24.69 165.66-25 166.39-25L166.39-25 169.15-25 169.15-28.93Q169.15-29.52 169.39-29.83L169.39-29.83Q170.42-31.18 172.4-32.74L172.4-32.74Q172.74-32.98 173.01-32.98L173.01-32.98Q173.3-32.98 173.59-32.74L173.59-32.74Q174.64-31.93 175.36-31.23 176.08-30.52 176.6-29.83L176.6-29.83Q176.84-29.52 176.84-28.93L176.84-28.93 176.84-25 181.16-25Q181.89-25 182.17-24.69 182.46-24.39 182.46-23.66L182.46-23.66 182.46-20.65Q182.46-19.92 182.17-19.62 181.89-19.31 181.16-19.31L181.16-19.31 176.84-19.31 176.84-9.2Q176.84-5.3 179.67-5.3L179.67-5.3Q180.11-5.3 180.48-5.38 180.84-5.47 181.11-5.57L181.11-5.57Q181.63-5.76 181.83-5.71 182.04-5.66 182.21-5.18L182.21-5.18 183.63-1.39Q183.85-0.78 183.33-0.51L183.33-0.51Q182.97-0.34 181.56 0.13 180.16 0.61 177.3 0.61ZM186.58-33.2L186.58-33.2Q186.58-33.52 186.77-33.76 186.97-34.01 187.29-34.4L187.29-34.4Q187.97-35.18 188.87-36.05 189.78-36.91 190.71-37.72L190.71-37.72Q191.29-38.18 191.58-38.18L191.58-38.18Q191.88-38.18 192.49-37.72L192.49-37.72Q194.46-36.01 195.86-34.4L195.86-34.4Q196.17-34.03 196.38-33.78 196.59-33.52 196.59-33.2L196.59-33.2Q196.59-32.89 196.38-32.64 196.17-32.4 195.83-31.98L195.83-31.98Q195.17-31.23 194.29-30.36 193.42-29.49 192.49-28.71L192.49-28.71Q192.15-28.42 191.95-28.33 191.75-28.25 191.58-28.25L191.58-28.25Q191.41-28.25 191.23-28.33 191.05-28.42 190.66-28.71L190.66-28.71Q189.68-29.49 188.83-30.36 187.97-31.23 187.29-32.03L187.29-32.03Q186.97-32.42 186.77-32.65 186.58-32.89 186.58-33.2ZM195.42-23.71L195.42-1.29Q195.42-0.56 195.11-0.28 194.81 0 194.07 0L194.07 0 189.05 0Q188.31 0 188.01-0.28 187.7-0.56 187.7-1.29L187.7-1.29 187.7-23.71Q187.7-24.44 188.01-24.72 188.31-25 189.05-25L189.05-25 194.07-25Q194.81-25 195.11-24.72 195.42-24.44 195.42-23.71L195.42-23.71ZM226.23-15.55L226.23-15.55 226.23-1.29Q226.23-0.56 225.92-0.28 225.61 0 224.88 0L224.88 0 219.85 0Q219.12 0 218.82-0.28 218.51-0.56 218.51-1.29L218.51-1.29 218.51-14.28Q218.51-16.94 217.39-18.16 216.26-19.38 214.34-19.38L214.34-19.38Q212.41-19.38 211.37-18.55 210.33-17.72 209.77-16.46L209.77-16.46 209.77-1.29Q209.77-0.56 209.46-0.28 209.16 0 208.43 0L208.43 0 203.4 0Q202.67 0 202.36-0.28 202.06-0.56 202.06-1.29L202.06-1.29 202.06-21.75Q202.06-22.34 202.3-22.66L202.3-22.66Q202.81-23.34 203.53-24.05 204.25-24.76 205.3-25.56L205.3-25.56Q205.62-25.81 205.91-25.81L205.91-25.81Q206.18-25.81 206.52-25.56L206.52-25.56Q207.55-24.76 208.28-24.02 209.01-23.29 209.57-22.51L209.57-22.51 209.7-22.51Q210.11-23.05 210.94-23.77 211.77-24.49 213.27-25.05 214.77-25.61 217.12-25.61L217.12-25.61Q219.41-25.61 221.49-24.68 223.56-23.75 224.89-21.56 226.23-19.36 226.23-15.55ZM256.98-22.66L256.98-22.66 256.98-2.86Q256.98 4.27 252.92 8.01 248.85 11.74 241.77 11.74L241.77 11.74Q238.84 11.74 237.14 11.32 235.43 10.89 234.55 10.5L234.55 10.5Q233.99 10.23 233.82 9.94L233.82 9.94Q233.57 9.55 233.27 8.79 232.96 8.03 232.69 7.13L232.69 7.13Q232.62 6.79 232.67 6.62L232.67 6.62Q232.77 6.37 233.03 6.1L233.03 6.1Q233.47 5.66 234.29 5.08 235.11 4.49 235.55 4.32L235.55 4.32Q236.01 4.15 236.4 4.37L236.4 4.37Q237.04 4.71 238.22 5.14 239.41 5.57 241.55 5.57L241.55 5.57Q244.97 5.57 247.12 3.81 249.27 2.05 249.27-1.61L249.27-1.61 249.27-2.49 249.17-2.49Q248.63-1.81 247.78-1.1 246.93-0.39 245.57 0.1 244.22 0.59 242.09 0.59L242.09 0.59Q238.41 0.59 236.05-1.01 233.69-2.61 232.58-5.42 231.47-8.23 231.47-11.82L231.47-11.82Q231.47-15.75 232.77-18.87 234.06-22 237.11-23.82 240.16-25.63 245.46-25.63L245.46-25.63Q248.63-25.63 250.8-25.17 252.96-24.71 254.42-24.02 255.89-23.34 256.98-22.66ZM245.19-19.73L245.19-19.73Q242.36-19.73 240.87-17.82 239.38-15.92 239.38-11.91L239.38-11.91Q239.38-5.64 244.56-5.64L244.56-5.64Q246.58-5.64 247.66-6.47 248.73-7.3 249.27-8.57L249.27-8.57 249.27-18.65Q248.73-19.04 247.76-19.38 246.78-19.73 245.19-19.73ZM283.25-2.27L283.25-2.27Q282.2-4.25 281.1-7.29 280-10.33 279-13.82 278-17.31 277.22-20.72 276.44-24.12 275.99-26.9 275.53-29.69 275.53-31.25L275.53-31.25Q275.53-31.88 275.8-32.25L275.8-32.25Q276.36-33.03 277.18-33.87 278-34.72 279.12-35.64L279.12-35.64Q279.49-35.94 279.81-35.94L279.81-35.94Q280.12-35.94 280.44-35.64L280.44-35.64Q281.59-34.72 282.39-33.87 283.2-33.03 283.76-32.25L283.76-32.25Q284.03-31.88 284.03-31.18L284.03-31.18 284.03-31.27Q284.03-29.66 284.46-26.92 284.88-24.17 285.58-20.91 286.28-17.65 287.09-14.49 287.91-11.33 288.72-8.86L288.72-8.86 288.86-8.86Q290.18-12.13 291.33-15.97 292.48-19.8 293.48-23.8 294.48-27.81 295.36-31.59L295.36-31.59Q295.63-32.69 296.27-33.12 296.92-33.54 298.31-33.54L298.31-33.54 301.24-33.54Q302.49-33.54 303.1-33.18 303.71-32.81 303.98-31.59L303.98-31.59Q304.61-28.76 305.42-25.61 306.22-22.46 307.09-19.35 307.96-16.24 308.85-13.53 309.74-10.82 310.54-8.86L310.54-8.86 310.69-8.86Q311.72-11.18 312.53-14.33 313.35-17.48 313.93-20.76 314.5-24.05 314.8-26.86 315.11-29.66 315.11-31.27L315.11-31.27 315.11-31.18Q315.11-31.88 315.35-32.25L315.35-32.25Q316.53-33.86 318.58-35.64L318.58-35.64Q318.97-35.94 319.26-35.94L319.26-35.94Q319.53-35.94 319.89-35.64L319.89-35.64Q320.99-34.72 321.77-33.87 322.56-33.03 323.12-32.25L323.12-32.25Q323.36-31.86 323.36-31.2L323.36-31.2Q323.36-29.15 322.9-26.27 322.43-23.39 321.64-20.13 320.85-16.87 319.86-13.62 318.87-10.38 317.78-7.56 316.7-4.74 315.65-2.78L315.65-2.78Q314.77-1.15 314.07-0.57 313.38 0 312.08 0L312.08 0 309.08 0Q307.98 0 307.24-0.49 306.49-0.98 305.69-2.32L305.69-2.32Q305.08-3.34 304.28-5.2 303.49-7.06 302.69-9.24 301.9-11.43 301.27-13.48 300.63-15.53 300.34-16.94L300.34-16.94Q300-18.55 299.76-20.06 299.53-21.56 299.48-22.41L299.48-22.41 299.29-22.41Q299.24-21.56 298.98-20.06 298.73-18.55 298.36-16.94L298.36-16.94Q297.99-15.33 297.38-13.26 296.77-11.18 296.04-9.08 295.31-6.98 294.58-5.2 293.84-3.42 293.21-2.37L293.21-2.37Q292.5-1.17 291.66-0.59 290.82 0 289.33 0L289.33 0 286.57 0Q285.28 0 284.62-0.46 283.96-0.93 283.25-2.27ZM323.36-31.27L323.36-31.27 323.36-31.18 323.36-31.2Q323.36-31.25 323.36-31.27ZM275.53-31.18L275.53-31.27 275.53-31.25 275.53-31.18ZM335.83-16.46L335.83-1.29Q335.83-0.56 335.53-0.28 335.22 0 334.49 0L334.49 0 329.46 0Q328.73 0 328.42-0.28 328.12-0.56 328.12-1.29L328.12-1.29 328.12-34.33Q328.12-34.91 328.36-35.23L328.36-35.23Q329.39-36.57 331.37-38.13L331.37-38.13Q331.71-38.38 331.98-38.38L331.98-38.38Q332.29-38.38 332.59-38.13L332.59-38.13Q333.64-37.33 334.36-36.62 335.08-35.91 335.59-35.23L335.59-35.23Q335.83-34.91 335.83-34.33L335.83-34.33 335.83-22.49 335.93-22.49Q336.47-23.19 337.32-23.91 338.18-24.63 339.61-25.12 341.03-25.61 343.26-25.61L343.26-25.61Q345.5-25.61 347.58-24.68 349.65-23.75 350.97-21.56 352.29-19.36 352.29-15.55L352.29-15.55 352.29-1.29Q352.29-0.56 351.98-0.28 351.68 0 350.95 0L350.95 0 345.92 0Q345.18 0 344.88-0.28 344.57-0.56 344.57-1.29L344.57-1.29 344.57-14.21Q344.57-16.92 343.45-18.15 342.33-19.38 340.4-19.38L340.4-19.38Q338.5-19.38 337.45-18.55 336.4-17.72 335.83-16.46L335.83-16.46ZM365.35 0.61L365.35 0.61Q361.76 0.61 359.65-1.4 357.54-3.42 357.54-6.96L357.54-6.96Q357.54-8.79 358.21-10.36 358.88-11.94 360.55-13.15 362.22-14.36 365.24-15.09 368.25-15.82 372.94-15.94L372.94-15.94Q372.94-18.16 371.83-19.14 370.72-20.12 368.5-20.12L368.5-20.12Q366.5-20.12 365.23-19.43 363.96-18.75 363.64-18.51L363.64-18.51Q363.3-18.21 362.81-18.29L362.81-18.29Q362.15-18.38 361.41-18.63 360.66-18.87 359.81-19.19L359.81-19.19Q359.68-19.24 359.54-19.35 359.39-19.46 359.37-19.68L359.37-19.68Q359.37-19.8 359.39-19.98 359.42-20.17 359.51-20.65L359.51-20.65Q359.61-21.14 359.81-21.86 360-22.58 360.17-22.97L360.17-22.97Q360.39-23.39 360.91-23.75L360.91-23.75Q361.32-24.1 363.42-24.85 365.52-25.61 369.5-25.61L369.5-25.61Q380.46-25.61 380.46-14.94L380.46-14.94 380.46-1.12Q380.46-0.66 380.2-0.33 379.95 0 379.34 0L379.34 0 375.68 0Q375.28 0 374.98-0.11 374.67-0.22 374.41-0.54L374.41-0.54 372.89-2.49 372.72-2.49Q371.6-0.85 369.71-0.12 367.81 0.61 365.35 0.61ZM368.03-5.05L368.03-5.05Q370.28-5.05 371.43-6.2 372.57-7.35 372.89-8.57L372.89-8.57 372.89-11.28Q369.5-11.28 367.8-10.75 366.11-10.23 365.54-9.39 364.98-8.54 364.98-7.57L364.98-7.57Q364.98-6.15 365.86-5.6 366.74-5.05 368.03-5.05ZM396.94 0.61L396.94 0.61Q388.78 0.61 388.78-7.86L388.78-7.86 388.78-19.31 386.02-19.31Q385.29-19.31 385.01-19.62 384.73-19.92 384.73-20.65L384.73-20.65 384.73-23.66Q384.73-24.39 385.01-24.69 385.29-25 386.02-25L386.02-25 388.78-25 388.78-28.93Q388.78-29.52 389.03-29.83L389.03-29.83Q390.05-31.18 392.03-32.74L392.03-32.74Q392.37-32.98 392.64-32.98L392.64-32.98Q392.93-32.98 393.23-32.74L393.23-32.74Q394.28-31.93 395-31.23 395.72-30.52 396.23-29.83L396.23-29.83Q396.47-29.52 396.47-28.93L396.47-28.93 396.47-25 400.8-25Q401.53-25 401.81-24.69 402.09-24.39 402.09-23.66L402.09-23.66 402.09-20.65Q402.09-19.92 401.81-19.62 401.53-19.31 400.8-19.31L400.8-19.31 396.47-19.31 396.47-9.2Q396.47-5.3 399.31-5.3L399.31-5.3Q399.75-5.3 400.11-5.38 400.48-5.47 400.75-5.57L400.75-5.57Q401.26-5.76 401.47-5.71 401.67-5.66 401.84-5.18L401.84-5.18 403.26-1.39Q403.48-0.78 402.97-0.51L402.97-0.51Q402.6-0.34 401.2 0.13 399.79 0.61 396.94 0.61ZM441.37-14.01L441.56-14.01Q441.9-15.33 442.31-16.61 442.71-17.9 443.29-19.48L443.29-19.48Q443.81-20.9 444.54-22.74 445.27-24.58 446.09-26.49 446.91-28.39 447.69-30.03 448.47-31.67 449.11-32.64L449.11-32.64Q449.89-33.84 450.8-34.42 451.72-35.01 453.5-35.01L453.5-35.01 456.7-35.01Q457.97-35.01 458.83-34.63 459.7-34.25 460.07-32.84L460.07-32.84Q460.34-31.79 460.58-29.76 460.82-27.73 461-24.15 461.17-20.56 461.26-14.93 461.36-9.3 461.36-1.03L461.36-1.03Q461.36-0.59 461.07-0.29 460.78 0 460.36 0L460.36 0 454.79 0Q454.38 0 454.09-0.29 453.79-0.59 453.79-1.05L453.79-1.05Q453.79-7.5 453.79-11.99 453.79-16.48 453.77-19.43 453.74-22.39 453.71-24.13 453.67-25.88 453.6-26.83L453.6-26.83 453.45-26.83Q452.16-23.85 450.69-20.2 449.23-16.55 447.84-12.68 446.44-8.81 445.35-5.13L445.35-5.13Q445.03-4.03 444.55-3.6 444.08-3.17 442.39-3.17L442.39-3.17 439.58-3.17Q438.14-3.17 437.67-3.54 437.19-3.91 436.85-5.13L436.85-5.13Q436.04-7.91 435.07-11.01 434.09-14.11 433.05-17.1 432.02-20.09 431.05-22.62 430.09-25.15 429.33-26.83L429.33-26.83 429.18-26.83Q428.99-23.95 428.84-19.82 428.7-15.7 428.61-10.86 428.52-6.03 428.5-1L428.5-1Q428.5-0.56 428.21-0.28 427.91 0 427.5 0L427.5 0 422.49 0Q422.08 0 421.79-0.29 421.49-0.59 421.49-1.05L421.49-1.05Q421.52-14.06 422.02-21.83 422.52-29.59 423.1-32.23L423.1-32.23Q423.5-33.96 424.48-34.48 425.47-35.01 426.74-35.01L426.74-35.01 430.7-35.01Q432.04-35.01 432.66-34.53 433.29-34.06 434.19-32.69L434.19-32.69Q434.73-31.88 435.47-30.27 436.21-28.66 437.02-26.7 437.83-24.73 438.55-22.81 439.27-20.9 439.73-19.48L439.73-19.48Q440.22-18.04 440.63-16.69 441.05-15.33 441.37-14.01L441.37-14.01ZM474.79 0.61L474.79 0.61Q471.2 0.61 469.09-1.4 466.97-3.42 466.97-6.96L466.97-6.96Q466.97-8.79 467.65-10.36 468.32-11.94 469.99-13.15 471.66-14.36 474.68-15.09 477.69-15.82 482.38-15.94L482.38-15.94Q482.38-18.16 481.27-19.14 480.16-20.12 477.94-20.12L477.94-20.12Q475.93-20.12 474.66-19.43 473.4-18.75 473.08-18.51L473.08-18.51Q472.74-18.21 472.25-18.29L472.25-18.29Q471.59-18.38 470.84-18.63 470.1-18.87 469.24-19.19L469.24-19.19Q469.12-19.24 468.98-19.35 468.83-19.46 468.81-19.68L468.81-19.68Q468.81-19.8 468.83-19.98 468.85-20.17 468.95-20.65L468.95-20.65Q469.05-21.14 469.24-21.86 469.44-22.58 469.61-22.97L469.61-22.97Q469.83-23.39 470.34-23.75L470.34-23.75Q470.76-24.1 472.86-24.85 474.96-25.61 478.94-25.61L478.94-25.61Q489.9-25.61 489.9-14.94L489.9-14.94 489.9-1.12Q489.9-0.66 489.64-0.33 489.39 0 488.78 0L488.78 0 485.11 0Q484.72 0 484.42-0.11 484.11-0.22 483.84-0.54L483.84-0.54 482.33-2.49 482.16-2.49Q481.04-0.85 479.14-0.12 477.25 0.61 474.79 0.61ZM477.47-5.05L477.47-5.05Q479.72-5.05 480.87-6.2 482.01-7.35 482.33-8.57L482.33-8.57 482.33-11.28Q478.94-11.28 477.24-10.75 475.54-10.23 474.98-9.39 474.42-8.54 474.42-7.57L474.42-7.57Q474.42-6.15 475.3-5.6 476.18-5.05 477.47-5.05ZM506.38 0.61L506.38 0.61Q498.22 0.61 498.22-7.86L498.22-7.86 498.22-19.31 495.46-19.31Q494.73-19.31 494.45-19.62 494.17-19.92 494.17-20.65L494.17-20.65 494.17-23.66Q494.17-24.39 494.45-24.69 494.73-25 495.46-25L495.46-25 498.22-25 498.22-28.93Q498.22-29.52 498.47-29.83L498.47-29.83Q499.49-31.18 501.47-32.74L501.47-32.74Q501.81-32.98 502.08-32.98L502.08-32.98Q502.37-32.98 502.66-32.74L502.66-32.74Q503.71-31.93 504.43-31.23 505.16-30.52 505.67-29.83L505.67-29.83Q505.91-29.52 505.91-28.93L505.91-28.93 505.91-25 510.23-25Q510.97-25 511.25-24.69 511.53-24.39 511.53-23.66L511.53-23.66 511.53-20.65Q511.53-19.92 511.25-19.62 510.97-19.31 510.23-19.31L510.23-19.31 505.91-19.31 505.91-9.2Q505.91-5.3 508.74-5.3L508.74-5.3Q509.18-5.3 509.55-5.38 509.92-5.47 510.18-5.57L510.18-5.57Q510.7-5.76 510.9-5.71 511.11-5.66 511.28-5.18L511.28-5.18 512.7-1.39Q512.92-0.78 512.41-0.51L512.41-0.51Q512.04-0.34 510.64 0.13 509.23 0.61 506.38 0.61ZM526.66 0.61L526.66 0.61Q518.51 0.61 518.51-7.86L518.51-7.86 518.51-19.31 515.75-19.31Q515.02-19.31 514.74-19.62 514.45-19.92 514.45-20.65L514.45-20.65 514.45-23.66Q514.45-24.39 514.74-24.69 515.02-25 515.75-25L515.75-25 518.51-25 518.51-28.93Q518.51-29.52 518.75-29.83L518.75-29.83Q519.78-31.18 521.75-32.74L521.75-32.74Q522.1-32.98 522.36-32.98L522.36-32.98Q522.66-32.98 522.95-32.74L522.95-32.74Q524-31.93 524.72-31.23 525.44-30.52 525.95-29.83L525.95-29.83Q526.2-29.52 526.2-28.93L526.2-28.93 526.2-25 530.52-25Q531.25-25 531.53-24.69 531.81-24.39 531.81-23.66L531.81-23.66 531.81-20.65Q531.81-19.92 531.53-19.62 531.25-19.31 530.52-19.31L530.52-19.31 526.2-19.31 526.2-9.2Q526.2-5.3 529.03-5.3L529.03-5.3Q529.47-5.3 529.84-5.38 530.2-5.47 530.47-5.57L530.47-5.57Q530.98-5.76 531.19-5.71 531.4-5.66 531.57-5.18L531.57-5.18 532.98-1.39Q533.2-0.78 532.69-0.51L532.69-0.51Q532.33-0.34 530.92 0.13 529.52 0.61 526.66 0.61ZM549.32 0.61L549.32 0.61Q545.19 0.61 542.14-0.72 539.09-2.05 537.4-4.86 535.72-7.67 535.72-12.11L535.72-12.11Q535.72-18.77 539.13-22.19 542.55-25.61 548.22-25.61L548.22-25.61Q551.9-25.61 554.45-24.29 557.01-22.97 558.34-20.65 559.67-18.33 559.67-15.36L559.67-15.36Q559.67-12.45 558.18-11.3 556.69-10.16 553.83-10.16L553.83-10.16 543.36-10.16Q543.55-7.64 545.2-6.32 546.85-5 549.68-5L549.68-5Q551.93-5 553.28-5.68 554.64-6.35 555.17-6.74L555.17-6.74Q555.64-7.08 556.22-7.06L556.22-7.06Q556.69-7.06 557.55-6.87 558.42-6.69 559.28-6.2L559.28-6.2Q559.89-5.88 559.89-5.32L559.89-5.32Q559.89-5 559.76-4.42L559.76-4.42Q559.69-4.08 559.52-3.43 559.35-2.78 559.08-2.22L559.08-2.22Q558.93-1.95 558.62-1.71L558.62-1.71Q558.13-1.37 557.04-0.81 555.96-0.24 554.08 0.18 552.2 0.61 549.32 0.61ZM543.31-15.16L543.31-15.16 551.27-15.16Q552.51-15.16 552.51-16.31L552.51-16.31Q552.51-18.04 551.43-19.23 550.34-20.41 548.17-20.41L548.17-20.41Q545.8-20.41 544.69-18.9 543.58-17.38 543.31-15.16ZM572.75-22.17L572.75-20.36 572.85-20.36Q574.68-25.44 579.44-25.44L579.44-25.44Q580.05-25.44 580.44-25.38 580.83-25.32 580.98-25.27L580.98-25.27Q581.34-25.15 581.34-24.71L581.34-24.71 581.34-18.82Q581.34-18.07 580.47-18.41L580.47-18.41Q580.17-18.53 579.62-18.66 579.07-18.8 578.1-18.8L578.1-18.8Q575.58-18.8 574.17-16.96 572.75-15.11 572.75-11.94L572.75-11.94 572.75-1.29Q572.75-0.56 572.45-0.28 572.14 0 571.41 0L571.41 0 566.38 0Q565.65 0 565.34-0.28 565.04-0.56 565.04-1.29L565.04-1.29 565.04-21.75Q565.04-22.34 565.28-22.66L565.28-22.66Q565.79-23.34 566.51-24.05 567.23-24.76 568.28-25.56L568.28-25.56Q568.48-25.71 568.67-25.76 568.87-25.81 569.01-25.81L569.01-25.81Q569.36-25.81 569.7-25.56L569.7-25.56Q571.72-23.97 572.53-22.85L572.53-22.85Q572.75-22.56 572.75-22.17L572.75-22.17ZM591.94 0.61L591.94 0.61Q589.32 0.61 587.6 0.17 585.88-0.27 584.84-0.89 583.81-1.51 583.22-2.03L583.22-2.03Q582.78-2.44 583.12-2.95L583.12-2.95 585.61-6.64Q586.15-7.42 586.83-6.74L586.83-6.74Q587.54-6.05 588.75-5.41 589.96-4.76 591.77-4.76L591.77-4.76Q593.38-4.76 594.42-5.31 595.45-5.86 595.45-6.91L595.45-6.91Q595.45-7.64 594.99-8.11 594.53-8.57 593.35-9.06 592.18-9.55 590.08-10.3L590.08-10.3Q586.98-11.43 585.39-13.01 583.81-14.6 583.81-17.65L583.81-17.65Q583.81-20.46 585.36-22.22 586.91-23.97 589.34-24.79 591.77-25.61 594.4-25.61L594.4-25.61Q597.75-25.61 599.1-24.99 600.46-24.37 600.85-24.02L600.85-24.02Q601.21-23.71 601.36-23.29L601.36-23.29Q601.68-22.34 601.85-20.78L601.85-20.78Q601.95-19.87 601.39-19.58L601.39-19.58Q601.09-19.41 600.46-19.21 599.82-19.02 599.19-18.87 598.55-18.73 598.24-18.73L598.24-18.73Q598.14-18.73 598.03-18.79 597.92-18.85 597.65-19.09L597.65-19.09Q597.33-19.41 596.56-19.82 595.79-20.24 594.45-20.24L594.45-20.24Q593.13-20.24 592.24-19.81 591.35-19.38 591.35-18.31L591.35-18.31Q591.35-17.14 592.49-16.55 593.62-15.97 596.23-15.04L596.23-15.04Q598.28-14.33 599.81-13.49 601.34-12.65 602.17-11.29 603-9.94 603-7.64L603-7.64Q603-4.66 601.37-2.84 599.75-1.03 597.22-0.21 594.7 0.61 591.94 0.61Z" opacity="1" transform="matrix(1,0,0,1,0,0)" fill="black" class="slogan-text-1" id="SvgjsPath2596"></path></svg></g></svg></g></svg></g></svg></g></svg></g><defs><mask></mask></defs></svg><rect width="395.52" height="99.74036389819601" fill="black" stroke="none" visibility="hidden"></rect></g></mask><linearGradient x1="0" x2="1" y1="0.5" y2="0.5" id="a81a6398-14d1-45f2-b860-4e1eb78d7dff"><stop stop-color="#f00b51" offset="0"></stop><stop stop-color="#730062" offset="1"></stop></linearGradient><rect width="395.52" height="99.74036389819601" fill="url(#a81a6398-14d1-45f2-b860-4e1eb78d7dff)" mask="url(#6bb3b419-61b7-4e2d-a888-96cb70040840)" data-fill-palette-color="primary"></rect><mask id="664a3857-9561-4f14-b434-bd6b923536eb"><g id="SvgjsG2611"><svg viewBox="0 0 395.52 99.74036389819601" height="99.74036389819601" width="395.52"><g><svg viewBox="0 0 397.4975999999999 100.23906571768697" height="99.74036389819601" width="395.52"><g><svg viewBox="0 0 397.4975999999999 100.23906571768697" height="100.23906571768697" width="397.4975999999999"><g id="SvgjsG2610"><svg viewBox="0 0 397.4975999999999 100.23906571768697" height="100.23906571768697" width="397.4975999999999" id="SvgjsSvg2609"><g></g><g transform="matrix(1,0,0,1,0.9887999999999693,0)"><svg viewBox="0 0 395.52 62.03767438353065" height="62.03767438353065" width="395.52"><g transform="matrix(1,0,0,1,0,0)"><svg width="395.52" viewBox="3.91 -38.38 323.71999999999997 50.78" height="62.03767438353065" data-palette-color="url(#a81a6398-14d1-45f2-b860-4e1eb78d7dff)"></svg></g></svg></g><g transform="matrix(1,0,0,1,165.28780799999993,80.81334129830717)"><svg viewBox="0 0 232.209792 19.42572441937981" height="19.42572441937981" width="232.209792"><g transform="matrix(1,0,0,1,0,0)"><svg width="232.209792" viewBox="3.91 -38.38 599.09 50.120000000000005" height="19.42572441937981" data-palette-color="url(#42345373-ebec-4afe-8cae-f2db7dbc3496)"><path d="M11.79-31.1L11.79-1.29Q11.79-0.56 11.49-0.28 11.18 0 10.45 0L10.45 0 5.25 0Q4.52 0 4.21-0.28 3.91-0.56 3.91-1.29L3.91-1.29 3.91-31.1Q3.91-31.81 4.15-32.18L4.15-32.18Q5.25-33.79 7.23-35.57L7.23-35.57Q7.59-35.86 7.86-35.86L7.86-35.86Q8.15-35.86 8.47-35.57L8.47-35.57Q9.55-34.64 10.28-33.8 11.01-32.96 11.55-32.18L11.55-32.18Q11.79-31.79 11.79-31.1L11.79-31.1ZM43.16-15.55L43.16-15.55 43.16-1.29Q43.16-0.56 42.86-0.28 42.55 0 41.82 0L41.82 0 36.79 0Q36.06 0 35.75-0.28 35.45-0.56 35.45-1.29L35.45-1.29 35.45-14.28Q35.45-16.94 34.32-18.16 33.2-19.38 31.27-19.38L31.27-19.38Q29.34-19.38 28.31-18.55 27.27-17.72 26.71-16.46L26.71-16.46 26.71-1.29Q26.71-0.56 26.4-0.28 26.1 0 25.36 0L25.36 0 20.33 0Q19.6 0 19.3-0.28 18.99-0.56 18.99-1.29L18.99-1.29 18.99-21.75Q18.99-22.34 19.24-22.66L19.24-22.66Q19.75-23.34 20.47-24.05 21.19-24.76 22.24-25.56L22.24-25.56Q22.56-25.81 22.85-25.81L22.85-25.81Q23.12-25.81 23.46-25.56L23.46-25.56Q24.48-24.76 25.22-24.02 25.95-23.29 26.51-22.51L26.51-22.51 26.63-22.51Q27.05-23.05 27.88-23.77 28.71-24.49 30.21-25.05 31.71-25.61 34.06-25.61L34.06-25.61Q36.35-25.61 38.43-24.68 40.5-23.75 41.83-21.56 43.16-19.36 43.16-15.55ZM73.92-15.55L73.92-15.55 73.92-1.29Q73.92-0.56 73.62-0.28 73.31 0 72.58 0L72.58 0 67.55 0Q66.82 0 66.51-0.28 66.21-0.56 66.21-1.29L66.21-1.29 66.21-14.28Q66.21-16.94 65.08-18.16 63.96-19.38 62.03-19.38L62.03-19.38Q60.1-19.38 59.06-18.55 58.03-17.72 57.47-16.46L57.47-16.46 57.47-1.29Q57.47-0.56 57.16-0.28 56.86 0 56.12 0L56.12 0 51.09 0Q50.36 0 50.06-0.28 49.75-0.56 49.75-1.29L49.75-1.29 49.75-21.75Q49.75-22.34 50-22.66L50-22.66Q50.51-23.34 51.23-24.05 51.95-24.76 53-25.56L53-25.56Q53.32-25.81 53.61-25.81L53.61-25.81Q53.88-25.81 54.22-25.56L54.22-25.56Q55.24-24.76 55.98-24.02 56.71-23.29 57.27-22.51L57.27-22.51 57.39-22.51Q57.81-23.05 58.64-23.77 59.47-24.49 60.97-25.05 62.47-25.61 64.81-25.61L64.81-25.61Q67.11-25.61 69.18-24.68 71.26-23.75 72.59-21.56 73.92-19.36 73.92-15.55ZM92.5 0.61L92.5 0.61Q86.35 0.61 82.76-2.66 79.17-5.93 79.17-12.4L79.17-12.4Q79.17-19.04 82.89-22.33 86.61-25.61 92.84-25.61L92.84-25.61Q98.85-25.61 102.46-22.38 106.07-19.14 106.07-12.84L106.07-12.84Q106.07-6.27 102.46-2.83 98.85 0.61 92.5 0.61ZM92.74-5.3L92.74-5.3Q95.43-5.3 96.79-6.97 98.16-8.64 98.16-12.7L98.16-12.7Q98.16-16.55 96.78-18.13 95.4-19.7 92.69-19.7L92.69-19.7Q90.08-19.7 88.58-18.01 87.08-16.31 87.08-12.5L87.08-12.5Q87.08-8.52 88.51-6.91 89.93-5.3 92.74-5.3ZM116.59-2.27L116.59-2.27Q115.25-4.39 113.94-7.17 112.64-9.94 111.57-12.78 110.51-15.63 109.88-17.98 109.24-20.34 109.24-21.61L109.24-21.61Q109.24-22.09 109.51-22.41L109.51-22.41Q110.63-23.8 112.71-25.32L112.71-25.32Q113.08-25.56 113.37-25.56L113.37-25.56Q113.69-25.56 114.03-25.32L114.03-25.32Q115.15-24.51 115.92-23.8 116.69-23.1 117.23-22.41L117.23-22.41Q117.49-22.09 117.49-21.51L117.49-21.51 117.49-21.63Q117.49-20.04 118.07-17.47 118.64-14.89 119.64-12.04 120.64-9.18 121.96-6.79L121.96-6.79 122.08-6.79Q123.18-8.59 124.04-10.69 124.89-12.79 125.48-14.89 126.06-16.99 126.37-18.75 126.67-20.51 126.67-21.61L126.67-21.61 126.67-21.51Q126.67-22.09 126.92-22.41L126.92-22.41Q127.48-23.1 128.24-23.8 128.99-24.51 130.07-25.32L130.07-25.32Q130.41-25.56 130.7-25.56L130.7-25.56Q131.04-25.56 131.34-25.32L131.34-25.32Q132.44-24.51 133.19-23.8 133.95-23.1 134.49-22.41L134.49-22.41Q134.73-22.09 134.73-21.56L134.73-21.56Q134.71-20.24 134.05-17.86 133.39-15.48 132.28-12.63 131.17-9.79 129.8-7.04 128.43-4.3 127.02-2.27L127.02-2.27Q126.16-1.03 125.48-0.51 124.79 0 123.11 0L123.11 0 120.52 0Q118.76 0 118.09-0.49 117.42-0.98 116.59-2.27ZM109.24-21.51L109.24-21.63 109.24-21.61Q109.24-21.56 109.24-21.51L109.24-21.51ZM134.73-21.61L134.73-21.61 134.73-21.51 134.73-21.56Q134.73-21.58 134.73-21.61ZM145.72 0.61L145.72 0.61Q142.13 0.61 140.01-1.4 137.9-3.42 137.9-6.96L137.9-6.96Q137.9-8.79 138.57-10.36 139.25-11.94 140.92-13.15 142.59-14.36 145.61-15.09 148.62-15.82 153.31-15.94L153.31-15.94Q153.31-18.16 152.2-19.14 151.09-20.12 148.86-20.12L148.86-20.12Q146.86-20.12 145.59-19.43 144.32-18.75 144.01-18.51L144.01-18.51Q143.66-18.21 143.18-18.29L143.18-18.29Q142.52-18.38 141.77-18.63 141.03-18.87 140.17-19.19L140.17-19.19Q140.05-19.24 139.9-19.35 139.76-19.46 139.73-19.68L139.73-19.68Q139.73-19.8 139.76-19.98 139.78-20.17 139.88-20.65L139.88-20.65Q139.98-21.14 140.17-21.86 140.37-22.58 140.54-22.97L140.54-22.97Q140.76-23.39 141.27-23.75L141.27-23.75Q141.69-24.1 143.79-24.85 145.89-25.61 149.87-25.61L149.87-25.61Q160.83-25.61 160.83-14.94L160.83-14.94 160.83-1.12Q160.83-0.66 160.57-0.33 160.31 0 159.7 0L159.7 0 156.04 0Q155.65 0 155.35-0.11 155.04-0.22 154.77-0.54L154.77-0.54 153.26-2.49 153.09-2.49Q151.97-0.85 150.07-0.12 148.18 0.61 145.72 0.61ZM148.4-5.05L148.4-5.05Q150.65-5.05 151.79-6.2 152.94-7.35 153.26-8.57L153.26-8.57 153.26-11.28Q149.87-11.28 148.17-10.75 146.47-10.23 145.91-9.39 145.35-8.54 145.35-7.57L145.35-7.57Q145.35-6.15 146.23-5.6 147.11-5.05 148.4-5.05ZM177.3 0.61L177.3 0.61Q169.15 0.61 169.15-7.86L169.15-7.86 169.15-19.31 166.39-19.31Q165.66-19.31 165.38-19.62 165.1-19.92 165.1-20.65L165.1-20.65 165.1-23.66Q165.1-24.39 165.38-24.69 165.66-25 166.39-25L166.39-25 169.15-25 169.15-28.93Q169.15-29.52 169.39-29.83L169.39-29.83Q170.42-31.18 172.4-32.74L172.4-32.74Q172.74-32.98 173.01-32.98L173.01-32.98Q173.3-32.98 173.59-32.74L173.59-32.74Q174.64-31.93 175.36-31.23 176.08-30.52 176.6-29.83L176.6-29.83Q176.84-29.52 176.84-28.93L176.84-28.93 176.84-25 181.16-25Q181.89-25 182.17-24.69 182.46-24.39 182.46-23.66L182.46-23.66 182.46-20.65Q182.46-19.92 182.17-19.62 181.89-19.31 181.16-19.31L181.16-19.31 176.84-19.31 176.84-9.2Q176.84-5.3 179.67-5.3L179.67-5.3Q180.11-5.3 180.48-5.38 180.84-5.47 181.11-5.57L181.11-5.57Q181.63-5.76 181.83-5.71 182.04-5.66 182.21-5.18L182.21-5.18 183.63-1.39Q183.85-0.78 183.33-0.51L183.33-0.51Q182.97-0.34 181.56 0.13 180.16 0.61 177.3 0.61ZM186.58-33.2L186.58-33.2Q186.58-33.52 186.77-33.76 186.97-34.01 187.29-34.4L187.29-34.4Q187.97-35.18 188.87-36.05 189.78-36.91 190.71-37.72L190.71-37.72Q191.29-38.18 191.58-38.18L191.58-38.18Q191.88-38.18 192.49-37.72L192.49-37.72Q194.46-36.01 195.86-34.4L195.86-34.4Q196.17-34.03 196.38-33.78 196.59-33.52 196.59-33.2L196.59-33.2Q196.59-32.89 196.38-32.64 196.17-32.4 195.83-31.98L195.83-31.98Q195.17-31.23 194.29-30.36 193.42-29.49 192.49-28.71L192.49-28.71Q192.15-28.42 191.95-28.33 191.75-28.25 191.58-28.25L191.58-28.25Q191.41-28.25 191.23-28.33 191.05-28.42 190.66-28.71L190.66-28.71Q189.68-29.49 188.83-30.36 187.97-31.23 187.29-32.03L187.29-32.03Q186.97-32.42 186.77-32.65 186.58-32.89 186.58-33.2ZM195.42-23.71L195.42-1.29Q195.42-0.56 195.11-0.28 194.81 0 194.07 0L194.07 0 189.05 0Q188.31 0 188.01-0.28 187.7-0.56 187.7-1.29L187.7-1.29 187.7-23.71Q187.7-24.44 188.01-24.72 188.31-25 189.05-25L189.05-25 194.07-25Q194.81-25 195.11-24.72 195.42-24.44 195.42-23.71L195.42-23.71ZM226.23-15.55L226.23-15.55 226.23-1.29Q226.23-0.56 225.92-0.28 225.61 0 224.88 0L224.88 0 219.85 0Q219.12 0 218.82-0.28 218.51-0.56 218.51-1.29L218.51-1.29 218.51-14.28Q218.51-16.94 217.39-18.16 216.26-19.38 214.34-19.38L214.34-19.38Q212.41-19.38 211.37-18.55 210.33-17.72 209.77-16.46L209.77-16.46 209.77-1.29Q209.77-0.56 209.46-0.28 209.16 0 208.43 0L208.43 0 203.4 0Q202.67 0 202.36-0.28 202.06-0.56 202.06-1.29L202.06-1.29 202.06-21.75Q202.06-22.34 202.3-22.66L202.3-22.66Q202.81-23.34 203.53-24.05 204.25-24.76 205.3-25.56L205.3-25.56Q205.62-25.81 205.91-25.81L205.91-25.81Q206.18-25.81 206.52-25.56L206.52-25.56Q207.55-24.76 208.28-24.02 209.01-23.29 209.57-22.51L209.57-22.51 209.7-22.51Q210.11-23.05 210.94-23.77 211.77-24.49 213.27-25.05 214.77-25.61 217.12-25.61L217.12-25.61Q219.41-25.61 221.49-24.68 223.56-23.75 224.89-21.56 226.23-19.36 226.23-15.55ZM256.98-22.66L256.98-22.66 256.98-2.86Q256.98 4.27 252.92 8.01 248.85 11.74 241.77 11.74L241.77 11.74Q238.84 11.74 237.14 11.32 235.43 10.89 234.55 10.5L234.55 10.5Q233.99 10.23 233.82 9.94L233.82 9.94Q233.57 9.55 233.27 8.79 232.96 8.03 232.69 7.13L232.69 7.13Q232.62 6.79 232.67 6.62L232.67 6.62Q232.77 6.37 233.03 6.1L233.03 6.1Q233.47 5.66 234.29 5.08 235.11 4.49 235.55 4.32L235.55 4.32Q236.01 4.15 236.4 4.37L236.4 4.37Q237.04 4.71 238.22 5.14 239.41 5.57 241.55 5.57L241.55 5.57Q244.97 5.57 247.12 3.81 249.27 2.05 249.27-1.61L249.27-1.61 249.27-2.49 249.17-2.49Q248.63-1.81 247.78-1.1 246.93-0.39 245.57 0.1 244.22 0.59 242.09 0.59L242.09 0.59Q238.41 0.59 236.05-1.01 233.69-2.61 232.58-5.42 231.47-8.23 231.47-11.82L231.47-11.82Q231.47-15.75 232.77-18.87 234.06-22 237.11-23.82 240.16-25.63 245.46-25.63L245.46-25.63Q248.63-25.63 250.8-25.17 252.96-24.71 254.42-24.02 255.89-23.34 256.98-22.66ZM245.19-19.73L245.19-19.73Q242.36-19.73 240.87-17.82 239.38-15.92 239.38-11.91L239.38-11.91Q239.38-5.64 244.56-5.64L244.56-5.64Q246.58-5.64 247.66-6.47 248.73-7.3 249.27-8.57L249.27-8.57 249.27-18.65Q248.73-19.04 247.76-19.38 246.78-19.73 245.19-19.73ZM283.25-2.27L283.25-2.27Q282.2-4.25 281.1-7.29 280-10.33 279-13.82 278-17.31 277.22-20.72 276.44-24.12 275.99-26.9 275.53-29.69 275.53-31.25L275.53-31.25Q275.53-31.88 275.8-32.25L275.8-32.25Q276.36-33.03 277.18-33.87 278-34.72 279.12-35.64L279.12-35.64Q279.49-35.94 279.81-35.94L279.81-35.94Q280.12-35.94 280.44-35.64L280.44-35.64Q281.59-34.72 282.39-33.87 283.2-33.03 283.76-32.25L283.76-32.25Q284.03-31.88 284.03-31.18L284.03-31.18 284.03-31.27Q284.03-29.66 284.46-26.92 284.88-24.17 285.58-20.91 286.28-17.65 287.09-14.49 287.91-11.33 288.72-8.86L288.72-8.86 288.86-8.86Q290.18-12.13 291.33-15.97 292.48-19.8 293.48-23.8 294.48-27.81 295.36-31.59L295.36-31.59Q295.63-32.69 296.27-33.12 296.92-33.54 298.31-33.54L298.31-33.54 301.24-33.54Q302.49-33.54 303.1-33.18 303.71-32.81 303.98-31.59L303.98-31.59Q304.61-28.76 305.42-25.61 306.22-22.46 307.09-19.35 307.96-16.24 308.85-13.53 309.74-10.82 310.54-8.86L310.54-8.86 310.69-8.86Q311.72-11.18 312.53-14.33 313.35-17.48 313.93-20.76 314.5-24.05 314.8-26.86 315.11-29.66 315.11-31.27L315.11-31.27 315.11-31.18Q315.11-31.88 315.35-32.25L315.35-32.25Q316.53-33.86 318.58-35.64L318.58-35.64Q318.97-35.94 319.26-35.94L319.26-35.94Q319.53-35.94 319.89-35.64L319.89-35.64Q320.99-34.72 321.77-33.87 322.56-33.03 323.12-32.25L323.12-32.25Q323.36-31.86 323.36-31.2L323.36-31.2Q323.36-29.15 322.9-26.27 322.43-23.39 321.64-20.13 320.85-16.87 319.86-13.62 318.87-10.38 317.78-7.56 316.7-4.74 315.65-2.78L315.65-2.78Q314.77-1.15 314.07-0.57 313.38 0 312.08 0L312.08 0 309.08 0Q307.98 0 307.24-0.49 306.49-0.98 305.69-2.32L305.69-2.32Q305.08-3.34 304.28-5.2 303.49-7.06 302.69-9.24 301.9-11.43 301.27-13.48 300.63-15.53 300.34-16.94L300.34-16.94Q300-18.55 299.76-20.06 299.53-21.56 299.48-22.41L299.48-22.41 299.29-22.41Q299.24-21.56 298.98-20.06 298.73-18.55 298.36-16.94L298.36-16.94Q297.99-15.33 297.38-13.26 296.77-11.18 296.04-9.08 295.31-6.98 294.58-5.2 293.84-3.42 293.21-2.37L293.21-2.37Q292.5-1.17 291.66-0.59 290.82 0 289.33 0L289.33 0 286.57 0Q285.28 0 284.62-0.46 283.96-0.93 283.25-2.27ZM323.36-31.27L323.36-31.27 323.36-31.18 323.36-31.2Q323.36-31.25 323.36-31.27ZM275.53-31.18L275.53-31.27 275.53-31.25 275.53-31.18ZM335.83-16.46L335.83-1.29Q335.83-0.56 335.53-0.28 335.22 0 334.49 0L334.49 0 329.46 0Q328.73 0 328.42-0.28 328.12-0.56 328.12-1.29L328.12-1.29 328.12-34.33Q328.12-34.91 328.36-35.23L328.36-35.23Q329.39-36.57 331.37-38.13L331.37-38.13Q331.71-38.38 331.98-38.38L331.98-38.38Q332.29-38.38 332.59-38.13L332.59-38.13Q333.64-37.33 334.36-36.62 335.08-35.91 335.59-35.23L335.59-35.23Q335.83-34.91 335.83-34.33L335.83-34.33 335.83-22.49 335.93-22.49Q336.47-23.19 337.32-23.91 338.18-24.63 339.61-25.12 341.03-25.61 343.26-25.61L343.26-25.61Q345.5-25.61 347.58-24.68 349.65-23.75 350.97-21.56 352.29-19.36 352.29-15.55L352.29-15.55 352.29-1.29Q352.29-0.56 351.98-0.28 351.68 0 350.95 0L350.95 0 345.92 0Q345.18 0 344.88-0.28 344.57-0.56 344.57-1.29L344.57-1.29 344.57-14.21Q344.57-16.92 343.45-18.15 342.33-19.38 340.4-19.38L340.4-19.38Q338.5-19.38 337.45-18.55 336.4-17.72 335.83-16.46L335.83-16.46ZM365.35 0.61L365.35 0.61Q361.76 0.61 359.65-1.4 357.54-3.42 357.54-6.96L357.54-6.96Q357.54-8.79 358.21-10.36 358.88-11.94 360.55-13.15 362.22-14.36 365.24-15.09 368.25-15.82 372.94-15.94L372.94-15.94Q372.94-18.16 371.83-19.14 370.72-20.12 368.5-20.12L368.5-20.12Q366.5-20.12 365.23-19.43 363.96-18.75 363.64-18.51L363.64-18.51Q363.3-18.21 362.81-18.29L362.81-18.29Q362.15-18.38 361.41-18.63 360.66-18.87 359.81-19.19L359.81-19.19Q359.68-19.24 359.54-19.35 359.39-19.46 359.37-19.68L359.37-19.68Q359.37-19.8 359.39-19.98 359.42-20.17 359.51-20.65L359.51-20.65Q359.61-21.14 359.81-21.86 360-22.58 360.17-22.97L360.17-22.97Q360.39-23.39 360.91-23.75L360.91-23.75Q361.32-24.1 363.42-24.85 365.52-25.61 369.5-25.61L369.5-25.61Q380.46-25.61 380.46-14.94L380.46-14.94 380.46-1.12Q380.46-0.66 380.2-0.33 379.95 0 379.34 0L379.34 0 375.68 0Q375.28 0 374.98-0.11 374.67-0.22 374.41-0.54L374.41-0.54 372.89-2.49 372.72-2.49Q371.6-0.85 369.71-0.12 367.81 0.61 365.35 0.61ZM368.03-5.05L368.03-5.05Q370.28-5.05 371.43-6.2 372.57-7.35 372.89-8.57L372.89-8.57 372.89-11.28Q369.5-11.28 367.8-10.75 366.11-10.23 365.54-9.39 364.98-8.54 364.98-7.57L364.98-7.57Q364.98-6.15 365.86-5.6 366.74-5.05 368.03-5.05ZM396.94 0.61L396.94 0.61Q388.78 0.61 388.78-7.86L388.78-7.86 388.78-19.31 386.02-19.31Q385.29-19.31 385.01-19.62 384.73-19.92 384.73-20.65L384.73-20.65 384.73-23.66Q384.73-24.39 385.01-24.69 385.29-25 386.02-25L386.02-25 388.78-25 388.78-28.93Q388.78-29.52 389.03-29.83L389.03-29.83Q390.05-31.18 392.03-32.74L392.03-32.74Q392.37-32.98 392.64-32.98L392.64-32.98Q392.93-32.98 393.23-32.74L393.23-32.74Q394.28-31.93 395-31.23 395.72-30.52 396.23-29.83L396.23-29.83Q396.47-29.52 396.47-28.93L396.47-28.93 396.47-25 400.8-25Q401.53-25 401.81-24.69 402.09-24.39 402.09-23.66L402.09-23.66 402.09-20.65Q402.09-19.92 401.81-19.62 401.53-19.31 400.8-19.31L400.8-19.31 396.47-19.31 396.47-9.2Q396.47-5.3 399.31-5.3L399.31-5.3Q399.75-5.3 400.11-5.38 400.48-5.47 400.75-5.57L400.75-5.57Q401.26-5.76 401.47-5.71 401.67-5.66 401.84-5.18L401.84-5.18 403.26-1.39Q403.48-0.78 402.97-0.51L402.97-0.51Q402.6-0.34 401.2 0.13 399.79 0.61 396.94 0.61ZM441.37-14.01L441.56-14.01Q441.9-15.33 442.31-16.61 442.71-17.9 443.29-19.48L443.29-19.48Q443.81-20.9 444.54-22.74 445.27-24.58 446.09-26.49 446.91-28.39 447.69-30.03 448.47-31.67 449.11-32.64L449.11-32.64Q449.89-33.84 450.8-34.42 451.72-35.01 453.5-35.01L453.5-35.01 456.7-35.01Q457.97-35.01 458.83-34.63 459.7-34.25 460.07-32.84L460.07-32.84Q460.34-31.79 460.58-29.76 460.82-27.73 461-24.15 461.17-20.56 461.26-14.93 461.36-9.3 461.36-1.03L461.36-1.03Q461.36-0.59 461.07-0.29 460.78 0 460.36 0L460.36 0 454.79 0Q454.38 0 454.09-0.29 453.79-0.59 453.79-1.05L453.79-1.05Q453.79-7.5 453.79-11.99 453.79-16.48 453.77-19.43 453.74-22.39 453.71-24.13 453.67-25.88 453.6-26.83L453.6-26.83 453.45-26.83Q452.16-23.85 450.69-20.2 449.23-16.55 447.84-12.68 446.44-8.81 445.35-5.13L445.35-5.13Q445.03-4.03 444.55-3.6 444.08-3.17 442.39-3.17L442.39-3.17 439.58-3.17Q438.14-3.17 437.67-3.54 437.19-3.91 436.85-5.13L436.85-5.13Q436.04-7.91 435.07-11.01 434.09-14.11 433.05-17.1 432.02-20.09 431.05-22.62 430.09-25.15 429.33-26.83L429.33-26.83 429.18-26.83Q428.99-23.95 428.84-19.82 428.7-15.7 428.61-10.86 428.52-6.03 428.5-1L428.5-1Q428.5-0.56 428.21-0.28 427.91 0 427.5 0L427.5 0 422.49 0Q422.08 0 421.79-0.29 421.49-0.59 421.49-1.05L421.49-1.05Q421.52-14.06 422.02-21.83 422.52-29.59 423.1-32.23L423.1-32.23Q423.5-33.96 424.48-34.48 425.47-35.01 426.74-35.01L426.74-35.01 430.7-35.01Q432.04-35.01 432.66-34.53 433.29-34.06 434.19-32.69L434.19-32.69Q434.73-31.88 435.47-30.27 436.21-28.66 437.02-26.7 437.83-24.73 438.55-22.81 439.27-20.9 439.73-19.48L439.73-19.48Q440.22-18.04 440.63-16.69 441.05-15.33 441.37-14.01L441.37-14.01ZM474.79 0.61L474.79 0.61Q471.2 0.61 469.09-1.4 466.97-3.42 466.97-6.96L466.97-6.96Q466.97-8.79 467.65-10.36 468.32-11.94 469.99-13.15 471.66-14.36 474.68-15.09 477.69-15.82 482.38-15.94L482.38-15.94Q482.38-18.16 481.27-19.14 480.16-20.12 477.94-20.12L477.94-20.12Q475.93-20.12 474.66-19.43 473.4-18.75 473.08-18.51L473.08-18.51Q472.74-18.21 472.25-18.29L472.25-18.29Q471.59-18.38 470.84-18.63 470.1-18.87 469.24-19.19L469.24-19.19Q469.12-19.24 468.98-19.35 468.83-19.46 468.81-19.68L468.81-19.68Q468.81-19.8 468.83-19.98 468.85-20.17 468.95-20.65L468.95-20.65Q469.05-21.14 469.24-21.86 469.44-22.58 469.61-22.97L469.61-22.97Q469.83-23.39 470.34-23.75L470.34-23.75Q470.76-24.1 472.86-24.85 474.96-25.61 478.94-25.61L478.94-25.61Q489.9-25.61 489.9-14.94L489.9-14.94 489.9-1.12Q489.9-0.66 489.64-0.33 489.39 0 488.78 0L488.78 0 485.11 0Q484.72 0 484.42-0.11 484.11-0.22 483.84-0.54L483.84-0.54 482.33-2.49 482.16-2.49Q481.04-0.85 479.14-0.12 477.25 0.61 474.79 0.61ZM477.47-5.05L477.47-5.05Q479.72-5.05 480.87-6.2 482.01-7.35 482.33-8.57L482.33-8.57 482.33-11.28Q478.94-11.28 477.24-10.75 475.54-10.23 474.98-9.39 474.42-8.54 474.42-7.57L474.42-7.57Q474.42-6.15 475.3-5.6 476.18-5.05 477.47-5.05ZM506.38 0.61L506.38 0.61Q498.22 0.61 498.22-7.86L498.22-7.86 498.22-19.31 495.46-19.31Q494.73-19.31 494.45-19.62 494.17-19.92 494.17-20.65L494.17-20.65 494.17-23.66Q494.17-24.39 494.45-24.69 494.73-25 495.46-25L495.46-25 498.22-25 498.22-28.93Q498.22-29.52 498.47-29.83L498.47-29.83Q499.49-31.18 501.47-32.74L501.47-32.74Q501.81-32.98 502.08-32.98L502.08-32.98Q502.37-32.98 502.66-32.74L502.66-32.74Q503.71-31.93 504.43-31.23 505.16-30.52 505.67-29.83L505.67-29.83Q505.91-29.52 505.91-28.93L505.91-28.93 505.91-25 510.23-25Q510.97-25 511.25-24.69 511.53-24.39 511.53-23.66L511.53-23.66 511.53-20.65Q511.53-19.92 511.25-19.62 510.97-19.31 510.23-19.31L510.23-19.31 505.91-19.31 505.91-9.2Q505.91-5.3 508.74-5.3L508.74-5.3Q509.18-5.3 509.55-5.38 509.92-5.47 510.18-5.57L510.18-5.57Q510.7-5.76 510.9-5.71 511.11-5.66 511.28-5.18L511.28-5.18 512.7-1.39Q512.92-0.78 512.41-0.51L512.41-0.51Q512.04-0.34 510.64 0.13 509.23 0.61 506.38 0.61ZM526.66 0.61L526.66 0.61Q518.51 0.61 518.51-7.86L518.51-7.86 518.51-19.31 515.75-19.31Q515.02-19.31 514.74-19.62 514.45-19.92 514.45-20.65L514.45-20.65 514.45-23.66Q514.45-24.39 514.74-24.69 515.02-25 515.75-25L515.75-25 518.51-25 518.51-28.93Q518.51-29.52 518.75-29.83L518.75-29.83Q519.78-31.18 521.75-32.74L521.75-32.74Q522.1-32.98 522.36-32.98L522.36-32.98Q522.66-32.98 522.95-32.74L522.95-32.74Q524-31.93 524.72-31.23 525.44-30.52 525.95-29.83L525.95-29.83Q526.2-29.52 526.2-28.93L526.2-28.93 526.2-25 530.52-25Q531.25-25 531.53-24.69 531.81-24.39 531.81-23.66L531.81-23.66 531.81-20.65Q531.81-19.92 531.53-19.62 531.25-19.31 530.52-19.31L530.52-19.31 526.2-19.31 526.2-9.2Q526.2-5.3 529.03-5.3L529.03-5.3Q529.47-5.3 529.84-5.38 530.2-5.47 530.47-5.57L530.47-5.57Q530.98-5.76 531.19-5.71 531.4-5.66 531.57-5.18L531.57-5.18 532.98-1.39Q533.2-0.78 532.69-0.51L532.69-0.51Q532.33-0.34 530.92 0.13 529.52 0.61 526.66 0.61ZM549.32 0.61L549.32 0.61Q545.19 0.61 542.14-0.72 539.09-2.05 537.4-4.86 535.72-7.67 535.72-12.11L535.72-12.11Q535.72-18.77 539.13-22.19 542.55-25.61 548.22-25.61L548.22-25.61Q551.9-25.61 554.45-24.29 557.01-22.97 558.34-20.65 559.67-18.33 559.67-15.36L559.67-15.36Q559.67-12.45 558.18-11.3 556.69-10.16 553.83-10.16L553.83-10.16 543.36-10.16Q543.55-7.64 545.2-6.32 546.85-5 549.68-5L549.68-5Q551.93-5 553.28-5.68 554.64-6.35 555.17-6.74L555.17-6.74Q555.64-7.08 556.22-7.06L556.22-7.06Q556.69-7.06 557.55-6.87 558.42-6.69 559.28-6.2L559.28-6.2Q559.89-5.88 559.89-5.32L559.89-5.32Q559.89-5 559.76-4.42L559.76-4.42Q559.69-4.08 559.52-3.43 559.35-2.78 559.08-2.22L559.08-2.22Q558.93-1.95 558.62-1.71L558.62-1.71Q558.13-1.37 557.04-0.81 555.96-0.24 554.08 0.18 552.2 0.61 549.32 0.61ZM543.31-15.16L543.31-15.16 551.27-15.16Q552.51-15.16 552.51-16.31L552.51-16.31Q552.51-18.04 551.43-19.23 550.34-20.41 548.17-20.41L548.17-20.41Q545.8-20.41 544.69-18.9 543.58-17.38 543.31-15.16ZM572.75-22.17L572.75-20.36 572.85-20.36Q574.68-25.44 579.44-25.44L579.44-25.44Q580.05-25.44 580.44-25.38 580.83-25.32 580.98-25.27L580.98-25.27Q581.34-25.15 581.34-24.71L581.34-24.71 581.34-18.82Q581.34-18.07 580.47-18.41L580.47-18.41Q580.17-18.53 579.62-18.66 579.07-18.8 578.1-18.8L578.1-18.8Q575.58-18.8 574.17-16.96 572.75-15.11 572.75-11.94L572.75-11.94 572.75-1.29Q572.75-0.56 572.45-0.28 572.14 0 571.41 0L571.41 0 566.38 0Q565.65 0 565.34-0.28 565.04-0.56 565.04-1.29L565.04-1.29 565.04-21.75Q565.04-22.34 565.28-22.66L565.28-22.66Q565.79-23.34 566.51-24.05 567.23-24.76 568.28-25.56L568.28-25.56Q568.48-25.71 568.67-25.76 568.87-25.81 569.01-25.81L569.01-25.81Q569.36-25.81 569.7-25.56L569.7-25.56Q571.72-23.97 572.53-22.85L572.53-22.85Q572.75-22.56 572.75-22.17L572.75-22.17ZM591.94 0.61L591.94 0.61Q589.32 0.61 587.6 0.17 585.88-0.27 584.84-0.89 583.81-1.51 583.22-2.03L583.22-2.03Q582.78-2.44 583.12-2.95L583.12-2.95 585.61-6.64Q586.15-7.42 586.83-6.74L586.83-6.74Q587.54-6.05 588.75-5.41 589.96-4.76 591.77-4.76L591.77-4.76Q593.38-4.76 594.42-5.31 595.45-5.86 595.45-6.91L595.45-6.91Q595.45-7.64 594.99-8.11 594.53-8.57 593.35-9.06 592.18-9.55 590.08-10.3L590.08-10.3Q586.98-11.43 585.39-13.01 583.81-14.6 583.81-17.65L583.81-17.65Q583.81-20.46 585.36-22.22 586.91-23.97 589.34-24.79 591.77-25.61 594.4-25.61L594.4-25.61Q597.75-25.61 599.1-24.99 600.46-24.37 600.85-24.02L600.85-24.02Q601.21-23.71 601.36-23.29L601.36-23.29Q601.68-22.34 601.85-20.78L601.85-20.78Q601.95-19.87 601.39-19.58L601.39-19.58Q601.09-19.41 600.46-19.21 599.82-19.02 599.19-18.87 598.55-18.73 598.24-18.73L598.24-18.73Q598.14-18.73 598.03-18.79 597.92-18.85 597.65-19.09L597.65-19.09Q597.33-19.41 596.56-19.82 595.79-20.24 594.45-20.24L594.45-20.24Q593.13-20.24 592.24-19.81 591.35-19.38 591.35-18.31L591.35-18.31Q591.35-17.14 592.49-16.55 593.62-15.97 596.23-15.04L596.23-15.04Q598.28-14.33 599.81-13.49 601.34-12.65 602.17-11.29 603-9.94 603-7.64L603-7.64Q603-4.66 601.37-2.84 599.75-1.03 597.22-0.21 594.7 0.61 591.94 0.61Z" opacity="1" transform="matrix(1,0,0,1,0,0)" fill="white" class="slogan-text-1" id="SvgjsPath2608"></path></svg></g></svg></g></svg></g></svg></g></svg></g><defs><mask></mask></defs><mask><g id="SvgjsG2607"><svg viewBox="0 0 395.52 99.74036389819601" height="99.74036389819601" width="395.52"><g><svg viewBox="0 0 397.4975999999999 100.23906571768697" height="99.74036389819601" width="395.52"><g><svg viewBox="0 0 397.4975999999999 100.23906571768697" height="100.23906571768697" width="397.4975999999999"><g id="SvgjsG2606"><svg viewBox="0 0 397.4975999999999 100.23906571768697" height="100.23906571768697" width="397.4975999999999" id="SvgjsSvg2605"><g><rect width="397.4975999999999" height="5.594621498786759" x="0" y="68.62819709152552" fill="black" opacity="1" stroke-width="0" stroke="transparent" fill-opacity="1" class="rect-yte-0" rx="1%" id="SvgjsRect2604" data-palette-color="url(#a81a6398-14d1-45f2-b860-4e1eb78d7dff)"></rect></g><g transform="matrix(1,0,0,1,0.9887999999999693,0)"><svg viewBox="0 0 395.52 62.03767438353065" height="62.03767438353065" width="395.52"><g transform="matrix(1,0,0,1,0,0)"><svg width="395.52" viewBox="3.91 -38.38 323.71999999999997 50.78" height="62.03767438353065" data-palette-color="url(#a81a6398-14d1-45f2-b860-4e1eb78d7dff)"><path d="M26.29-21.04L26.29-31.1Q26.29-31.81 26.54-32.18L26.54-32.18Q27.64-33.79 29.61-35.57L29.61-35.57Q29.98-35.86 30.25-35.86L30.25-35.86Q30.54-35.86 30.86-35.57L30.86-35.57Q31.93-34.64 32.67-33.8 33.4-32.96 33.94-32.18L33.94-32.18Q34.18-31.79 34.18-31.1L34.18-31.1 34.18-1.29Q34.18-0.56 33.87-0.28 33.57 0 32.84 0L32.84 0 27.64 0Q26.9 0 26.6-0.28 26.29-0.56 26.29-1.29L26.29-1.29 26.29-14.26 11.79-14.26 11.79-1.29Q11.79-0.56 11.49-0.28 11.18 0 10.45 0L10.45 0 5.25 0Q4.52 0 4.21-0.28 3.91-0.56 3.91-1.29L3.91-1.29 3.91-33.72Q3.91-34.45 4.21-34.73 4.52-35.01 5.25-35.01L5.25-35.01 10.45-35.01Q11.18-35.01 11.49-34.73 11.79-34.45 11.79-33.72L11.79-33.72 11.79-21.04 26.29-21.04ZM47.85 0.61L47.85 0.61Q44.26 0.61 42.15-1.4 40.04-3.42 40.04-6.96L40.04-6.96Q40.04-8.79 40.71-10.36 41.38-11.94 43.05-13.15 44.72-14.36 47.74-15.09 50.75-15.82 55.44-15.94L55.44-15.94Q55.44-18.16 54.33-19.14 53.22-20.12 51-20.12L51-20.12Q49-20.12 47.73-19.43 46.46-18.75 46.14-18.51L46.14-18.51Q45.8-18.21 45.31-18.29L45.31-18.29Q44.65-18.38 43.91-18.63 43.16-18.87 42.31-19.19L42.31-19.19Q42.19-19.24 42.04-19.35 41.89-19.46 41.87-19.68L41.87-19.68Q41.87-19.8 41.89-19.98 41.92-20.17 42.01-20.65L42.01-20.65Q42.11-21.14 42.31-21.86 42.5-22.58 42.67-22.97L42.67-22.97Q42.89-23.39 43.41-23.75L43.41-23.75Q43.82-24.1 45.92-24.85 48.02-25.61 52-25.61L52-25.61Q62.96-25.61 62.96-14.94L62.96-14.94 62.96-1.12Q62.96-0.66 62.71-0.33 62.45 0 61.84 0L61.84 0 58.18 0Q57.79 0 57.48-0.11 57.18-0.22 56.91-0.54L56.91-0.54 55.39-2.49 55.22-2.49Q54.1-0.85 52.21-0.12 50.31 0.61 47.85 0.61ZM50.53-5.05L50.53-5.05Q52.78-5.05 53.93-6.2 55.08-7.35 55.39-8.57L55.39-8.57 55.39-11.28Q52-11.28 50.3-10.75 48.61-10.23 48.04-9.39 47.48-8.54 47.48-7.57L47.48-7.57Q47.48-6.15 48.36-5.6 49.24-5.05 50.53-5.05ZM77.27-22.17L77.27-20.36 77.36-20.36Q79.19-25.44 83.95-25.44L83.95-25.44Q84.57-25.44 84.96-25.38 85.35-25.32 85.49-25.27L85.49-25.27Q85.86-25.15 85.86-24.71L85.86-24.71 85.86-18.82Q85.86-18.07 84.98-18.41L84.98-18.41Q84.69-18.53 84.14-18.66 83.59-18.8 82.61-18.8L82.61-18.8Q80.1-18.8 78.68-16.96 77.27-15.11 77.27-11.94L77.27-11.94 77.27-1.29Q77.27-0.56 76.96-0.28 76.66 0 75.92 0L75.92 0 70.89 0Q70.16 0 69.86-0.28 69.55-0.56 69.55-1.29L69.55-1.29 69.55-21.75Q69.55-22.34 69.79-22.66L69.79-22.66Q70.31-23.34 71.03-24.05 71.75-24.76 72.8-25.56L72.8-25.56Q72.99-25.71 73.19-25.76 73.38-25.81 73.53-25.81L73.53-25.81Q73.87-25.81 74.21-25.56L74.21-25.56Q76.24-23.97 77.05-22.85L77.05-22.85Q77.27-22.56 77.27-22.17L77.27-22.17ZM101.48 0.61L101.48 0.61Q95.33 0.61 91.74-2.66 88.15-5.93 88.15-12.4L88.15-12.4Q88.15-19.04 91.87-22.33 95.6-25.61 101.82-25.61L101.82-25.61Q107.83-25.61 111.44-22.38 115.06-19.14 115.06-12.84L115.06-12.84Q115.06-6.27 111.44-2.83 107.83 0.61 101.48 0.61ZM101.73-5.3L101.73-5.3Q104.41-5.3 105.78-6.97 107.15-8.64 107.15-12.7L107.15-12.7Q107.15-16.55 105.77-18.13 104.39-19.7 101.68-19.7L101.68-19.7Q99.06-19.7 97.56-18.01 96.06-16.31 96.06-12.5L96.06-12.5Q96.06-8.52 97.49-6.91 98.92-5.3 101.73-5.3ZM130.19 0.61L130.19 0.61Q122.04 0.61 122.04-7.86L122.04-7.86 122.04-19.31 119.28-19.31Q118.54-19.31 118.26-19.62 117.98-19.92 117.98-20.65L117.98-20.65 117.98-23.66Q117.98-24.39 118.26-24.69 118.54-25 119.28-25L119.28-25 122.04-25 122.04-28.93Q122.04-29.52 122.28-29.83L122.28-29.83Q123.31-31.18 125.28-32.74L125.28-32.74Q125.62-32.98 125.89-32.98L125.89-32.98Q126.19-32.98 126.48-32.74L126.48-32.74Q127.53-31.93 128.25-31.23 128.97-30.52 129.48-29.83L129.48-29.83Q129.73-29.52 129.73-28.93L129.73-28.93 129.73-25 134.05-25Q134.78-25 135.06-24.69 135.34-24.39 135.34-23.66L135.34-23.66 135.34-20.65Q135.34-19.92 135.06-19.62 134.78-19.31 134.05-19.31L134.05-19.31 129.73-19.31 129.73-9.2Q129.73-5.3 132.56-5.3L132.56-5.3Q133-5.3 133.36-5.38 133.73-5.47 134-5.57L134-5.57Q134.51-5.76 134.72-5.71 134.93-5.66 135.1-5.18L135.1-5.18 136.51-1.39Q136.73-0.78 136.22-0.51L136.22-0.51Q135.85-0.34 134.45 0.13 133.05 0.61 130.19 0.61ZM148.3-16.46L148.3-1.29Q148.3-0.56 148-0.28 147.69 0 146.96 0L146.96 0 141.93 0Q141.2 0 140.89-0.28 140.59-0.56 140.59-1.29L140.59-1.29 140.59-34.33Q140.59-34.91 140.83-35.23L140.83-35.23Q141.86-36.57 143.84-38.13L143.84-38.13Q144.18-38.38 144.45-38.38L144.45-38.38Q144.76-38.38 145.06-38.13L145.06-38.13Q146.11-37.33 146.83-36.62 147.55-35.91 148.06-35.23L148.06-35.23Q148.3-34.91 148.3-34.33L148.3-34.33 148.3-22.49 148.4-22.49Q148.94-23.19 149.79-23.91 150.65-24.63 152.07-25.12 153.5-25.61 155.72-25.61L155.72-25.61Q157.97-25.61 160.05-24.68 162.12-23.75 163.44-21.56 164.76-19.36 164.76-15.55L164.76-15.55 164.76-1.29Q164.76-0.56 164.45-0.28 164.15 0 163.42 0L163.42 0 158.39 0Q157.65 0 157.35-0.28 157.04-0.56 157.04-1.29L157.04-1.29 157.04-14.21Q157.04-16.92 155.92-18.15 154.8-19.38 152.87-19.38L152.87-19.38Q150.96-19.38 149.91-18.55 148.86-17.72 148.3-16.46L148.3-16.46ZM214.12-14.43L214.12-2.39Q213.53-1.98 212.03-1.26 210.53-0.54 207.89 0.02 205.26 0.59 201.28 0.59L201.28 0.59Q195.93 0.59 192.06-1.18 188.19-2.95 186.12-6.92 184.04-10.89 184.04-17.43L184.04-17.43Q184.04-26.15 188.51-30.87 192.98-35.6 200.96-35.6L200.96-35.6Q204.77-35.6 207.04-34.86 209.31-34.13 210.48-33.15 211.65-32.18 212.12-31.45L212.12-31.45Q212.29-31.18 212.36-30.97 212.43-30.76 212.46-30.32L212.46-30.32Q212.53-29.74 212.49-28.61 212.46-27.49 212.31-26.64L212.31-26.64Q212.21-26.1 211.99-25.93L211.99-25.93Q211.9-25.83 211.65-25.76 211.41-25.68 210.92-25.68L210.92-25.68Q210.14-25.68 209.1-25.74 208.06-25.81 207.58-25.88L207.58-25.88Q206.99-25.98 206.73-26.16 206.48-26.34 206.18-26.73L206.18-26.73Q205.89-27.12 205.38-27.65 204.87-28.17 203.83-28.59 202.79-29 200.96-29L200.96-29Q196.93-29 194.64-26.09 192.34-23.17 192.34-17.7L192.34-17.7Q192.34-11.96 194.72-8.98 197.1-6.01 201.57-6.01L201.57-6.01Q203.82-6.01 204.88-6.34 205.94-6.67 206.23-6.84L206.23-6.84 206.23-14.43Q206.23-15.14 206.48-15.5L206.48-15.5Q207.58-17.11 209.55-18.9L209.55-18.9Q209.92-19.19 210.19-19.19L210.19-19.19Q210.48-19.19 210.8-18.9L210.8-18.9Q211.87-17.97 212.6-17.13 213.34-16.28 213.87-15.5L213.87-15.5Q214.12-15.11 214.12-14.43L214.12-14.43ZM227.81-22.17L227.81-20.36 227.91-20.36Q229.74-25.44 234.5-25.44L234.5-25.44Q235.11-25.44 235.5-25.38 235.89-25.32 236.04-25.27L236.04-25.27Q236.41-25.15 236.41-24.71L236.41-24.71 236.41-18.82Q236.41-18.07 235.53-18.41L235.53-18.41Q235.23-18.53 234.68-18.66 234.14-18.8 233.16-18.8L233.16-18.8Q230.64-18.8 229.23-16.96 227.81-15.11 227.81-11.94L227.81-11.94 227.81-1.29Q227.81-0.56 227.51-0.28 227.2 0 226.47 0L226.47 0 221.44 0Q220.71 0 220.4-0.28 220.1-0.56 220.1-1.29L220.1-1.29 220.1-21.75Q220.1-22.34 220.34-22.66L220.34-22.66Q220.85-23.34 221.57-24.05 222.29-24.76 223.34-25.56L223.34-25.56Q223.54-25.71 223.73-25.76 223.93-25.81 224.08-25.81L224.08-25.81Q224.42-25.81 224.76-25.56L224.76-25.56Q226.79-23.97 227.59-22.85L227.59-22.85Q227.81-22.56 227.81-22.17L227.81-22.17ZM252.03 0.61L252.03 0.61Q245.88 0.61 242.29-2.66 238.7-5.93 238.7-12.4L238.7-12.4Q238.7-19.04 242.42-22.33 246.14-25.61 252.37-25.61L252.37-25.61Q258.38-25.61 261.99-22.38 265.6-19.14 265.6-12.84L265.6-12.84Q265.6-6.27 261.99-2.83 258.38 0.61 252.03 0.61ZM252.27-5.3L252.27-5.3Q254.96-5.3 256.33-6.97 257.69-8.64 257.69-12.7L257.69-12.7Q257.69-16.55 256.31-18.13 254.93-19.7 252.22-19.7L252.22-19.7Q249.61-19.7 248.11-18.01 246.61-16.31 246.61-12.5L246.61-12.5Q246.61-8.52 248.04-6.91 249.46-5.3 252.27-5.3ZM279.56 0.61L279.56 0.61Q270.87 0.61 270.87-9.91L270.87-9.91 270.85-22.31Q270.85-22.9 271.09-23.22L271.09-23.22Q272.12-24.56 274.1-26.12L274.1-26.12Q274.44-26.37 274.71-26.37L274.71-26.37Q275.02-26.37 275.32-26.12L275.32-26.12Q276.37-25.32 277.09-24.61 277.81-23.9 278.32-23.22L278.32-23.22Q278.56-22.9 278.56-22.31L278.56-22.31 278.56-10.6Q278.56-5.3 282.76-5.3L282.76-5.3Q284.84-5.3 286.08-6.75 287.33-8.2 287.33-10.69L287.33-10.69 287.33-22.31Q287.33-22.9 287.57-23.22L287.57-23.22Q288.6-24.56 290.58-26.12L290.58-26.12Q290.92-26.37 291.19-26.37L291.19-26.37Q291.5-26.37 291.8-26.12L291.8-26.12Q292.85-25.32 293.57-24.61 294.29-23.9 294.8-23.22L294.8-23.22Q295.04-22.9 295.04-22.31L295.04-22.31 295.04-1.12Q295.04-0.66 294.73-0.33 294.41 0 293.92 0L293.92 0 290.26 0Q289.87 0 289.56-0.11 289.26-0.22 288.99-0.54L288.99-0.54 287.48-2.49 287.3-2.49Q286.91-1.93 286.1-1.2 285.28-0.46 283.73 0.07 282.18 0.61 279.56 0.61ZM317.18-25.61L317.18-25.61Q320.75-25.61 323.06-24.01 325.36-22.41 326.5-19.62 327.63-16.82 327.63-13.21L327.63-13.21Q327.63-9.3 326.3-6.18 324.97-3.05 322.38-1.22 319.8 0.61 315.96 0.61L315.96 0.61Q313.99 0.61 312.7 0.16 311.42-0.29 310.65-0.92 309.88-1.54 309.45-2.05L309.45-2.05 309.35-2.05 309.35 8.35Q309.35 8.94 309.1 9.25L309.1 9.25Q308.08 10.6 306.1 12.16L306.1 12.16Q305.76 12.4 305.49 12.4L305.49 12.4Q305.2 12.4 304.88 12.16L304.88 12.16Q303.83 11.35 303.11 10.64 302.39 9.94 301.88 9.25L301.88 9.25Q301.63 8.94 301.63 8.35L301.63 8.35 301.63-21.75Q301.63-22.34 301.88-22.66L301.88-22.66Q302.39-23.34 303.11-24.05 303.83-24.76 304.88-25.56L304.88-25.56Q305.2-25.81 305.54-25.81L305.54-25.81Q305.86-25.81 306.2-25.56L306.2-25.56Q307.22-24.76 307.96-24.02 308.69-23.29 309.25-22.51L309.25-22.51 309.37-22.51Q309.79-23.02 310.64-23.75 311.5-24.49 313.07-25.05 314.65-25.61 317.18-25.61ZM314.18-5.62L314.18-5.62Q316.82-5.62 318.27-7.46 319.72-9.3 319.72-12.79L319.72-12.79Q319.72-19.38 314.3-19.38L314.3-19.38Q312.01-19.38 310.91-18.44 309.81-17.5 309.35-16.46L309.35-16.46 309.35-11.16Q309.35-8.79 310.57-7.2 311.79-5.62 314.18-5.62Z" opacity="1" transform="matrix(1,0,0,1,0,0)" fill="black" class="wordmark-text-0" id="SvgjsPath2603"></path></svg></g></svg></g><g transform="matrix(1,0,0,1,165.28780799999993,80.81334129830717)"><svg viewBox="0 0 232.209792 19.42572441937981" height="19.42572441937981" width="232.209792"><g transform="matrix(1,0,0,1,0,0)"><svg width="232.209792" viewBox="3.91 -38.38 599.09 50.120000000000005" height="19.42572441937981" data-palette-color="url(#42345373-ebec-4afe-8cae-f2db7dbc3496)"><path d="M11.79-31.1L11.79-1.29Q11.79-0.56 11.49-0.28 11.18 0 10.45 0L10.45 0 5.25 0Q4.52 0 4.21-0.28 3.91-0.56 3.91-1.29L3.91-1.29 3.91-31.1Q3.91-31.81 4.15-32.18L4.15-32.18Q5.25-33.79 7.23-35.57L7.23-35.57Q7.59-35.86 7.86-35.86L7.86-35.86Q8.15-35.86 8.47-35.57L8.47-35.57Q9.55-34.64 10.28-33.8 11.01-32.96 11.55-32.18L11.55-32.18Q11.79-31.79 11.79-31.1L11.79-31.1ZM43.16-15.55L43.16-15.55 43.16-1.29Q43.16-0.56 42.86-0.28 42.55 0 41.82 0L41.82 0 36.79 0Q36.06 0 35.75-0.28 35.45-0.56 35.45-1.29L35.45-1.29 35.45-14.28Q35.45-16.94 34.32-18.16 33.2-19.38 31.27-19.38L31.27-19.38Q29.34-19.38 28.31-18.55 27.27-17.72 26.71-16.46L26.71-16.46 26.71-1.29Q26.71-0.56 26.4-0.28 26.1 0 25.36 0L25.36 0 20.33 0Q19.6 0 19.3-0.28 18.99-0.56 18.99-1.29L18.99-1.29 18.99-21.75Q18.99-22.34 19.24-22.66L19.24-22.66Q19.75-23.34 20.47-24.05 21.19-24.76 22.24-25.56L22.24-25.56Q22.56-25.81 22.85-25.81L22.85-25.81Q23.12-25.81 23.46-25.56L23.46-25.56Q24.48-24.76 25.22-24.02 25.95-23.29 26.51-22.51L26.51-22.51 26.63-22.51Q27.05-23.05 27.88-23.77 28.71-24.49 30.21-25.05 31.71-25.61 34.06-25.61L34.06-25.61Q36.35-25.61 38.43-24.68 40.5-23.75 41.83-21.56 43.16-19.36 43.16-15.55ZM73.92-15.55L73.92-15.55 73.92-1.29Q73.92-0.56 73.62-0.28 73.31 0 72.58 0L72.58 0 67.55 0Q66.82 0 66.51-0.28 66.21-0.56 66.21-1.29L66.21-1.29 66.21-14.28Q66.21-16.94 65.08-18.16 63.96-19.38 62.03-19.38L62.03-19.38Q60.1-19.38 59.06-18.55 58.03-17.72 57.47-16.46L57.47-16.46 57.47-1.29Q57.47-0.56 57.16-0.28 56.86 0 56.12 0L56.12 0 51.09 0Q50.36 0 50.06-0.28 49.75-0.56 49.75-1.29L49.75-1.29 49.75-21.75Q49.75-22.34 50-22.66L50-22.66Q50.51-23.34 51.23-24.05 51.95-24.76 53-25.56L53-25.56Q53.32-25.81 53.61-25.81L53.61-25.81Q53.88-25.81 54.22-25.56L54.22-25.56Q55.24-24.76 55.98-24.02 56.71-23.29 57.27-22.51L57.27-22.51 57.39-22.51Q57.81-23.05 58.64-23.77 59.47-24.49 60.97-25.05 62.47-25.61 64.81-25.61L64.81-25.61Q67.11-25.61 69.18-24.68 71.26-23.75 72.59-21.56 73.92-19.36 73.92-15.55ZM92.5 0.61L92.5 0.61Q86.35 0.61 82.76-2.66 79.17-5.93 79.17-12.4L79.17-12.4Q79.17-19.04 82.89-22.33 86.61-25.61 92.84-25.61L92.84-25.61Q98.85-25.61 102.46-22.38 106.07-19.14 106.07-12.84L106.07-12.84Q106.07-6.27 102.46-2.83 98.85 0.61 92.5 0.61ZM92.74-5.3L92.74-5.3Q95.43-5.3 96.79-6.97 98.16-8.64 98.16-12.7L98.16-12.7Q98.16-16.55 96.78-18.13 95.4-19.7 92.69-19.7L92.69-19.7Q90.08-19.7 88.58-18.01 87.08-16.31 87.08-12.5L87.08-12.5Q87.08-8.52 88.51-6.91 89.93-5.3 92.74-5.3ZM116.59-2.27L116.59-2.27Q115.25-4.39 113.94-7.17 112.64-9.94 111.57-12.78 110.51-15.63 109.88-17.98 109.24-20.34 109.24-21.61L109.24-21.61Q109.24-22.09 109.51-22.41L109.51-22.41Q110.63-23.8 112.71-25.32L112.71-25.32Q113.08-25.56 113.37-25.56L113.37-25.56Q113.69-25.56 114.03-25.32L114.03-25.32Q115.15-24.51 115.92-23.8 116.69-23.1 117.23-22.41L117.23-22.41Q117.49-22.09 117.49-21.51L117.49-21.51 117.49-21.63Q117.49-20.04 118.07-17.47 118.64-14.89 119.64-12.04 120.64-9.18 121.96-6.79L121.96-6.79 122.08-6.79Q123.18-8.59 124.04-10.69 124.89-12.79 125.48-14.89 126.06-16.99 126.37-18.75 126.67-20.51 126.67-21.61L126.67-21.61 126.67-21.51Q126.67-22.09 126.92-22.41L126.92-22.41Q127.48-23.1 128.24-23.8 128.99-24.51 130.07-25.32L130.07-25.32Q130.41-25.56 130.7-25.56L130.7-25.56Q131.04-25.56 131.34-25.32L131.34-25.32Q132.44-24.51 133.19-23.8 133.95-23.1 134.49-22.41L134.49-22.41Q134.73-22.09 134.73-21.56L134.73-21.56Q134.71-20.24 134.05-17.86 133.39-15.48 132.28-12.63 131.17-9.79 129.8-7.04 128.43-4.3 127.02-2.27L127.02-2.27Q126.16-1.03 125.48-0.51 124.79 0 123.11 0L123.11 0 120.52 0Q118.76 0 118.09-0.49 117.42-0.98 116.59-2.27ZM109.24-21.51L109.24-21.63 109.24-21.61Q109.24-21.56 109.24-21.51L109.24-21.51ZM134.73-21.61L134.73-21.61 134.73-21.51 134.73-21.56Q134.73-21.58 134.73-21.61ZM145.72 0.61L145.72 0.61Q142.13 0.61 140.01-1.4 137.9-3.42 137.9-6.96L137.9-6.96Q137.9-8.79 138.57-10.36 139.25-11.94 140.92-13.15 142.59-14.36 145.61-15.09 148.62-15.82 153.31-15.94L153.31-15.94Q153.31-18.16 152.2-19.14 151.09-20.12 148.86-20.12L148.86-20.12Q146.86-20.12 145.59-19.43 144.32-18.75 144.01-18.51L144.01-18.51Q143.66-18.21 143.18-18.29L143.18-18.29Q142.52-18.38 141.77-18.63 141.03-18.87 140.17-19.19L140.17-19.19Q140.05-19.24 139.9-19.35 139.76-19.46 139.73-19.68L139.73-19.68Q139.73-19.8 139.76-19.98 139.78-20.17 139.88-20.65L139.88-20.65Q139.98-21.14 140.17-21.86 140.37-22.58 140.54-22.97L140.54-22.97Q140.76-23.39 141.27-23.75L141.27-23.75Q141.69-24.1 143.79-24.85 145.89-25.61 149.87-25.61L149.87-25.61Q160.83-25.61 160.83-14.94L160.83-14.94 160.83-1.12Q160.83-0.66 160.57-0.33 160.31 0 159.7 0L159.7 0 156.04 0Q155.65 0 155.35-0.11 155.04-0.22 154.77-0.54L154.77-0.54 153.26-2.49 153.09-2.49Q151.97-0.85 150.07-0.12 148.18 0.61 145.72 0.61ZM148.4-5.05L148.4-5.05Q150.65-5.05 151.79-6.2 152.94-7.35 153.26-8.57L153.26-8.57 153.26-11.28Q149.87-11.28 148.17-10.75 146.47-10.23 145.91-9.39 145.35-8.54 145.35-7.57L145.35-7.57Q145.35-6.15 146.23-5.6 147.11-5.05 148.4-5.05ZM177.3 0.61L177.3 0.61Q169.15 0.61 169.15-7.86L169.15-7.86 169.15-19.31 166.39-19.31Q165.66-19.31 165.38-19.62 165.1-19.92 165.1-20.65L165.1-20.65 165.1-23.66Q165.1-24.39 165.38-24.69 165.66-25 166.39-25L166.39-25 169.15-25 169.15-28.93Q169.15-29.52 169.39-29.83L169.39-29.83Q170.42-31.18 172.4-32.74L172.4-32.74Q172.74-32.98 173.01-32.98L173.01-32.98Q173.3-32.98 173.59-32.74L173.59-32.74Q174.64-31.93 175.36-31.23 176.08-30.52 176.6-29.83L176.6-29.83Q176.84-29.52 176.84-28.93L176.84-28.93 176.84-25 181.16-25Q181.89-25 182.17-24.69 182.46-24.39 182.46-23.66L182.46-23.66 182.46-20.65Q182.46-19.92 182.17-19.62 181.89-19.31 181.16-19.31L181.16-19.31 176.84-19.31 176.84-9.2Q176.84-5.3 179.67-5.3L179.67-5.3Q180.11-5.3 180.48-5.38 180.84-5.47 181.11-5.57L181.11-5.57Q181.63-5.76 181.83-5.71 182.04-5.66 182.21-5.18L182.21-5.18 183.63-1.39Q183.85-0.78 183.33-0.51L183.33-0.51Q182.97-0.34 181.56 0.13 180.16 0.61 177.3 0.61ZM186.58-33.2L186.58-33.2Q186.58-33.52 186.77-33.76 186.97-34.01 187.29-34.4L187.29-34.4Q187.97-35.18 188.87-36.05 189.78-36.91 190.71-37.72L190.71-37.72Q191.29-38.18 191.58-38.18L191.58-38.18Q191.88-38.18 192.49-37.72L192.49-37.72Q194.46-36.01 195.86-34.4L195.86-34.4Q196.17-34.03 196.38-33.78 196.59-33.52 196.59-33.2L196.59-33.2Q196.59-32.89 196.38-32.64 196.17-32.4 195.83-31.98L195.83-31.98Q195.17-31.23 194.29-30.36 193.42-29.49 192.49-28.71L192.49-28.71Q192.15-28.42 191.95-28.33 191.75-28.25 191.58-28.25L191.58-28.25Q191.41-28.25 191.23-28.33 191.05-28.42 190.66-28.71L190.66-28.71Q189.68-29.49 188.83-30.36 187.97-31.23 187.29-32.03L187.29-32.03Q186.97-32.42 186.77-32.65 186.58-32.89 186.58-33.2ZM195.42-23.71L195.42-1.29Q195.42-0.56 195.11-0.28 194.81 0 194.07 0L194.07 0 189.05 0Q188.31 0 188.01-0.28 187.7-0.56 187.7-1.29L187.7-1.29 187.7-23.71Q187.7-24.44 188.01-24.72 188.31-25 189.05-25L189.05-25 194.07-25Q194.81-25 195.11-24.72 195.42-24.44 195.42-23.71L195.42-23.71ZM226.23-15.55L226.23-15.55 226.23-1.29Q226.23-0.56 225.92-0.28 225.61 0 224.88 0L224.88 0 219.85 0Q219.12 0 218.82-0.28 218.51-0.56 218.51-1.29L218.51-1.29 218.51-14.28Q218.51-16.94 217.39-18.16 216.26-19.38 214.34-19.38L214.34-19.38Q212.41-19.38 211.37-18.55 210.33-17.72 209.77-16.46L209.77-16.46 209.77-1.29Q209.77-0.56 209.46-0.28 209.16 0 208.43 0L208.43 0 203.4 0Q202.67 0 202.36-0.28 202.06-0.56 202.06-1.29L202.06-1.29 202.06-21.75Q202.06-22.34 202.3-22.66L202.3-22.66Q202.81-23.34 203.53-24.05 204.25-24.76 205.3-25.56L205.3-25.56Q205.62-25.81 205.91-25.81L205.91-25.81Q206.18-25.81 206.52-25.56L206.52-25.56Q207.55-24.76 208.28-24.02 209.01-23.29 209.57-22.51L209.57-22.51 209.7-22.51Q210.11-23.05 210.94-23.77 211.77-24.49 213.27-25.05 214.77-25.61 217.12-25.61L217.12-25.61Q219.41-25.61 221.49-24.68 223.56-23.75 224.89-21.56 226.23-19.36 226.23-15.55ZM256.98-22.66L256.98-22.66 256.98-2.86Q256.98 4.27 252.92 8.01 248.85 11.74 241.77 11.74L241.77 11.74Q238.84 11.74 237.14 11.32 235.43 10.89 234.55 10.5L234.55 10.5Q233.99 10.23 233.82 9.94L233.82 9.94Q233.57 9.55 233.27 8.79 232.96 8.03 232.69 7.13L232.69 7.13Q232.62 6.79 232.67 6.62L232.67 6.62Q232.77 6.37 233.03 6.1L233.03 6.1Q233.47 5.66 234.29 5.08 235.11 4.49 235.55 4.32L235.55 4.32Q236.01 4.15 236.4 4.37L236.4 4.37Q237.04 4.71 238.22 5.14 239.41 5.57 241.55 5.57L241.55 5.57Q244.97 5.57 247.12 3.81 249.27 2.05 249.27-1.61L249.27-1.61 249.27-2.49 249.17-2.49Q248.63-1.81 247.78-1.1 246.93-0.39 245.57 0.1 244.22 0.59 242.09 0.59L242.09 0.59Q238.41 0.59 236.05-1.01 233.69-2.61 232.58-5.42 231.47-8.23 231.47-11.82L231.47-11.82Q231.47-15.75 232.77-18.87 234.06-22 237.11-23.82 240.16-25.63 245.46-25.63L245.46-25.63Q248.63-25.63 250.8-25.17 252.96-24.71 254.42-24.02 255.89-23.34 256.98-22.66ZM245.19-19.73L245.19-19.73Q242.36-19.73 240.87-17.82 239.38-15.92 239.38-11.91L239.38-11.91Q239.38-5.64 244.56-5.64L244.56-5.64Q246.58-5.64 247.66-6.47 248.73-7.3 249.27-8.57L249.27-8.57 249.27-18.65Q248.73-19.04 247.76-19.38 246.78-19.73 245.19-19.73ZM283.25-2.27L283.25-2.27Q282.2-4.25 281.1-7.29 280-10.33 279-13.82 278-17.31 277.22-20.72 276.44-24.12 275.99-26.9 275.53-29.69 275.53-31.25L275.53-31.25Q275.53-31.88 275.8-32.25L275.8-32.25Q276.36-33.03 277.18-33.87 278-34.72 279.12-35.64L279.12-35.64Q279.49-35.94 279.81-35.94L279.81-35.94Q280.12-35.94 280.44-35.64L280.44-35.64Q281.59-34.72 282.39-33.87 283.2-33.03 283.76-32.25L283.76-32.25Q284.03-31.88 284.03-31.18L284.03-31.18 284.03-31.27Q284.03-29.66 284.46-26.92 284.88-24.17 285.58-20.91 286.28-17.65 287.09-14.49 287.91-11.33 288.72-8.86L288.72-8.86 288.86-8.86Q290.18-12.13 291.33-15.97 292.48-19.8 293.48-23.8 294.48-27.81 295.36-31.59L295.36-31.59Q295.63-32.69 296.27-33.12 296.92-33.54 298.31-33.54L298.31-33.54 301.24-33.54Q302.49-33.54 303.1-33.18 303.71-32.81 303.98-31.59L303.98-31.59Q304.61-28.76 305.42-25.61 306.22-22.46 307.09-19.35 307.96-16.24 308.85-13.53 309.74-10.82 310.54-8.86L310.54-8.86 310.69-8.86Q311.72-11.18 312.53-14.33 313.35-17.48 313.93-20.76 314.5-24.05 314.8-26.86 315.11-29.66 315.11-31.27L315.11-31.27 315.11-31.18Q315.11-31.88 315.35-32.25L315.35-32.25Q316.53-33.86 318.58-35.64L318.58-35.64Q318.97-35.94 319.26-35.94L319.26-35.94Q319.53-35.94 319.89-35.64L319.89-35.64Q320.99-34.72 321.77-33.87 322.56-33.03 323.12-32.25L323.12-32.25Q323.36-31.86 323.36-31.2L323.36-31.2Q323.36-29.15 322.9-26.27 322.43-23.39 321.64-20.13 320.85-16.87 319.86-13.62 318.87-10.38 317.78-7.56 316.7-4.74 315.65-2.78L315.65-2.78Q314.77-1.15 314.07-0.57 313.38 0 312.08 0L312.08 0 309.08 0Q307.98 0 307.24-0.49 306.49-0.98 305.69-2.32L305.69-2.32Q305.08-3.34 304.28-5.2 303.49-7.06 302.69-9.24 301.9-11.43 301.27-13.48 300.63-15.53 300.34-16.94L300.34-16.94Q300-18.55 299.76-20.06 299.53-21.56 299.48-22.41L299.48-22.41 299.29-22.41Q299.24-21.56 298.98-20.06 298.73-18.55 298.36-16.94L298.36-16.94Q297.99-15.33 297.38-13.26 296.77-11.18 296.04-9.08 295.31-6.98 294.58-5.2 293.84-3.42 293.21-2.37L293.21-2.37Q292.5-1.17 291.66-0.59 290.82 0 289.33 0L289.33 0 286.57 0Q285.28 0 284.62-0.46 283.96-0.93 283.25-2.27ZM323.36-31.27L323.36-31.27 323.36-31.18 323.36-31.2Q323.36-31.25 323.36-31.27ZM275.53-31.18L275.53-31.27 275.53-31.25 275.53-31.18ZM335.83-16.46L335.83-1.29Q335.83-0.56 335.53-0.28 335.22 0 334.49 0L334.49 0 329.46 0Q328.73 0 328.42-0.28 328.12-0.56 328.12-1.29L328.12-1.29 328.12-34.33Q328.12-34.91 328.36-35.23L328.36-35.23Q329.39-36.57 331.37-38.13L331.37-38.13Q331.71-38.38 331.98-38.38L331.98-38.38Q332.29-38.38 332.59-38.13L332.59-38.13Q333.64-37.33 334.36-36.62 335.08-35.91 335.59-35.23L335.59-35.23Q335.83-34.91 335.83-34.33L335.83-34.33 335.83-22.49 335.93-22.49Q336.47-23.19 337.32-23.91 338.18-24.63 339.61-25.12 341.03-25.61 343.26-25.61L343.26-25.61Q345.5-25.61 347.58-24.68 349.65-23.75 350.97-21.56 352.29-19.36 352.29-15.55L352.29-15.55 352.29-1.29Q352.29-0.56 351.98-0.28 351.68 0 350.95 0L350.95 0 345.92 0Q345.18 0 344.88-0.28 344.57-0.56 344.57-1.29L344.57-1.29 344.57-14.21Q344.57-16.92 343.45-18.15 342.33-19.38 340.4-19.38L340.4-19.38Q338.5-19.38 337.45-18.55 336.4-17.72 335.83-16.46L335.83-16.46ZM365.35 0.61L365.35 0.61Q361.76 0.61 359.65-1.4 357.54-3.42 357.54-6.96L357.54-6.96Q357.54-8.79 358.21-10.36 358.88-11.94 360.55-13.15 362.22-14.36 365.24-15.09 368.25-15.82 372.94-15.94L372.94-15.94Q372.94-18.16 371.83-19.14 370.72-20.12 368.5-20.12L368.5-20.12Q366.5-20.12 365.23-19.43 363.96-18.75 363.64-18.51L363.64-18.51Q363.3-18.21 362.81-18.29L362.81-18.29Q362.15-18.38 361.41-18.63 360.66-18.87 359.81-19.19L359.81-19.19Q359.68-19.24 359.54-19.35 359.39-19.46 359.37-19.68L359.37-19.68Q359.37-19.8 359.39-19.98 359.42-20.17 359.51-20.65L359.51-20.65Q359.61-21.14 359.81-21.86 360-22.58 360.17-22.97L360.17-22.97Q360.39-23.39 360.91-23.75L360.91-23.75Q361.32-24.1 363.42-24.85 365.52-25.61 369.5-25.61L369.5-25.61Q380.46-25.61 380.46-14.94L380.46-14.94 380.46-1.12Q380.46-0.66 380.2-0.33 379.95 0 379.34 0L379.34 0 375.68 0Q375.28 0 374.98-0.11 374.67-0.22 374.41-0.54L374.41-0.54 372.89-2.49 372.72-2.49Q371.6-0.85 369.71-0.12 367.81 0.61 365.35 0.61ZM368.03-5.05L368.03-5.05Q370.28-5.05 371.43-6.2 372.57-7.35 372.89-8.57L372.89-8.57 372.89-11.28Q369.5-11.28 367.8-10.75 366.11-10.23 365.54-9.39 364.98-8.54 364.98-7.57L364.98-7.57Q364.98-6.15 365.86-5.6 366.74-5.05 368.03-5.05ZM396.94 0.61L396.94 0.61Q388.78 0.61 388.78-7.86L388.78-7.86 388.78-19.31 386.02-19.31Q385.29-19.31 385.01-19.62 384.73-19.92 384.73-20.65L384.73-20.65 384.73-23.66Q384.73-24.39 385.01-24.69 385.29-25 386.02-25L386.02-25 388.78-25 388.78-28.93Q388.78-29.52 389.03-29.83L389.03-29.83Q390.05-31.18 392.03-32.74L392.03-32.74Q392.37-32.98 392.64-32.98L392.64-32.98Q392.93-32.98 393.23-32.74L393.23-32.74Q394.28-31.93 395-31.23 395.72-30.52 396.23-29.83L396.23-29.83Q396.47-29.52 396.47-28.93L396.47-28.93 396.47-25 400.8-25Q401.53-25 401.81-24.69 402.09-24.39 402.09-23.66L402.09-23.66 402.09-20.65Q402.09-19.92 401.81-19.62 401.53-19.31 400.8-19.31L400.8-19.31 396.47-19.31 396.47-9.2Q396.47-5.3 399.31-5.3L399.31-5.3Q399.75-5.3 400.11-5.38 400.48-5.47 400.75-5.57L400.75-5.57Q401.26-5.76 401.47-5.71 401.67-5.66 401.84-5.18L401.84-5.18 403.26-1.39Q403.48-0.78 402.97-0.51L402.97-0.51Q402.6-0.34 401.2 0.13 399.79 0.61 396.94 0.61ZM441.37-14.01L441.56-14.01Q441.9-15.33 442.31-16.61 442.71-17.9 443.29-19.48L443.29-19.48Q443.81-20.9 444.54-22.74 445.27-24.58 446.09-26.49 446.91-28.39 447.69-30.03 448.47-31.67 449.11-32.64L449.11-32.64Q449.89-33.84 450.8-34.42 451.72-35.01 453.5-35.01L453.5-35.01 456.7-35.01Q457.97-35.01 458.83-34.63 459.7-34.25 460.07-32.84L460.07-32.84Q460.34-31.79 460.58-29.76 460.82-27.73 461-24.15 461.17-20.56 461.26-14.93 461.36-9.3 461.36-1.03L461.36-1.03Q461.36-0.59 461.07-0.29 460.78 0 460.36 0L460.36 0 454.79 0Q454.38 0 454.09-0.29 453.79-0.59 453.79-1.05L453.79-1.05Q453.79-7.5 453.79-11.99 453.79-16.48 453.77-19.43 453.74-22.39 453.71-24.13 453.67-25.88 453.6-26.83L453.6-26.83 453.45-26.83Q452.16-23.85 450.69-20.2 449.23-16.55 447.84-12.68 446.44-8.81 445.35-5.13L445.35-5.13Q445.03-4.03 444.55-3.6 444.08-3.17 442.39-3.17L442.39-3.17 439.58-3.17Q438.14-3.17 437.67-3.54 437.19-3.91 436.85-5.13L436.85-5.13Q436.04-7.91 435.07-11.01 434.09-14.11 433.05-17.1 432.02-20.09 431.05-22.62 430.09-25.15 429.33-26.83L429.33-26.83 429.18-26.83Q428.99-23.95 428.84-19.82 428.7-15.7 428.61-10.86 428.52-6.03 428.5-1L428.5-1Q428.5-0.56 428.21-0.28 427.91 0 427.5 0L427.5 0 422.49 0Q422.08 0 421.79-0.29 421.49-0.59 421.49-1.05L421.49-1.05Q421.52-14.06 422.02-21.83 422.52-29.59 423.1-32.23L423.1-32.23Q423.5-33.96 424.48-34.48 425.47-35.01 426.74-35.01L426.74-35.01 430.7-35.01Q432.04-35.01 432.66-34.53 433.29-34.06 434.19-32.69L434.19-32.69Q434.73-31.88 435.47-30.27 436.21-28.66 437.02-26.7 437.83-24.73 438.55-22.81 439.27-20.9 439.73-19.48L439.73-19.48Q440.22-18.04 440.63-16.69 441.05-15.33 441.37-14.01L441.37-14.01ZM474.79 0.61L474.79 0.61Q471.2 0.61 469.09-1.4 466.97-3.42 466.97-6.96L466.97-6.96Q466.97-8.79 467.65-10.36 468.32-11.94 469.99-13.15 471.66-14.36 474.68-15.09 477.69-15.82 482.38-15.94L482.38-15.94Q482.38-18.16 481.27-19.14 480.16-20.12 477.94-20.12L477.94-20.12Q475.93-20.12 474.66-19.43 473.4-18.75 473.08-18.51L473.08-18.51Q472.74-18.21 472.25-18.29L472.25-18.29Q471.59-18.38 470.84-18.63 470.1-18.87 469.24-19.19L469.24-19.19Q469.12-19.24 468.98-19.35 468.83-19.46 468.81-19.68L468.81-19.68Q468.81-19.8 468.83-19.98 468.85-20.17 468.95-20.65L468.95-20.65Q469.05-21.14 469.24-21.86 469.44-22.58 469.61-22.97L469.61-22.97Q469.83-23.39 470.34-23.75L470.34-23.75Q470.76-24.1 472.86-24.85 474.96-25.61 478.94-25.61L478.94-25.61Q489.9-25.61 489.9-14.94L489.9-14.94 489.9-1.12Q489.9-0.66 489.64-0.33 489.39 0 488.78 0L488.78 0 485.11 0Q484.72 0 484.42-0.11 484.11-0.22 483.84-0.54L483.84-0.54 482.33-2.49 482.16-2.49Q481.04-0.85 479.14-0.12 477.25 0.61 474.79 0.61ZM477.47-5.05L477.47-5.05Q479.72-5.05 480.87-6.2 482.01-7.35 482.33-8.57L482.33-8.57 482.33-11.28Q478.94-11.28 477.24-10.75 475.54-10.23 474.98-9.39 474.42-8.54 474.42-7.57L474.42-7.57Q474.42-6.15 475.3-5.6 476.18-5.05 477.47-5.05ZM506.38 0.61L506.38 0.61Q498.22 0.61 498.22-7.86L498.22-7.86 498.22-19.31 495.46-19.31Q494.73-19.31 494.45-19.62 494.17-19.92 494.17-20.65L494.17-20.65 494.17-23.66Q494.17-24.39 494.45-24.69 494.73-25 495.46-25L495.46-25 498.22-25 498.22-28.93Q498.22-29.52 498.47-29.83L498.47-29.83Q499.49-31.18 501.47-32.74L501.47-32.74Q501.81-32.98 502.08-32.98L502.08-32.98Q502.37-32.98 502.66-32.74L502.66-32.74Q503.71-31.93 504.43-31.23 505.16-30.52 505.67-29.83L505.67-29.83Q505.91-29.52 505.91-28.93L505.91-28.93 505.91-25 510.23-25Q510.97-25 511.25-24.69 511.53-24.39 511.53-23.66L511.53-23.66 511.53-20.65Q511.53-19.92 511.25-19.62 510.97-19.31 510.23-19.31L510.23-19.31 505.91-19.31 505.91-9.2Q505.91-5.3 508.74-5.3L508.74-5.3Q509.18-5.3 509.55-5.38 509.92-5.47 510.18-5.57L510.18-5.57Q510.7-5.76 510.9-5.71 511.11-5.66 511.28-5.18L511.28-5.18 512.7-1.39Q512.92-0.78 512.41-0.51L512.41-0.51Q512.04-0.34 510.64 0.13 509.23 0.61 506.38 0.61ZM526.66 0.61L526.66 0.61Q518.51 0.61 518.51-7.86L518.51-7.86 518.51-19.31 515.75-19.31Q515.02-19.31 514.74-19.62 514.45-19.92 514.45-20.65L514.45-20.65 514.45-23.66Q514.45-24.39 514.74-24.69 515.02-25 515.75-25L515.75-25 518.51-25 518.51-28.93Q518.51-29.52 518.75-29.83L518.75-29.83Q519.78-31.18 521.75-32.74L521.75-32.74Q522.1-32.98 522.36-32.98L522.36-32.98Q522.66-32.98 522.95-32.74L522.95-32.74Q524-31.93 524.72-31.23 525.44-30.52 525.95-29.83L525.95-29.83Q526.2-29.52 526.2-28.93L526.2-28.93 526.2-25 530.52-25Q531.25-25 531.53-24.69 531.81-24.39 531.81-23.66L531.81-23.66 531.81-20.65Q531.81-19.92 531.53-19.62 531.25-19.31 530.52-19.31L530.52-19.31 526.2-19.31 526.2-9.2Q526.2-5.3 529.03-5.3L529.03-5.3Q529.47-5.3 529.84-5.38 530.2-5.47 530.47-5.57L530.47-5.57Q530.98-5.76 531.19-5.71 531.4-5.66 531.57-5.18L531.57-5.18 532.98-1.39Q533.2-0.78 532.69-0.51L532.69-0.51Q532.33-0.34 530.92 0.13 529.52 0.61 526.66 0.61ZM549.32 0.61L549.32 0.61Q545.19 0.61 542.14-0.72 539.09-2.05 537.4-4.86 535.72-7.67 535.72-12.11L535.72-12.11Q535.72-18.77 539.13-22.19 542.55-25.61 548.22-25.61L548.22-25.61Q551.9-25.61 554.45-24.29 557.01-22.97 558.34-20.65 559.67-18.33 559.67-15.36L559.67-15.36Q559.67-12.45 558.18-11.3 556.69-10.16 553.83-10.16L553.83-10.16 543.36-10.16Q543.55-7.64 545.2-6.32 546.85-5 549.68-5L549.68-5Q551.93-5 553.28-5.68 554.64-6.35 555.17-6.74L555.17-6.74Q555.64-7.08 556.22-7.06L556.22-7.06Q556.69-7.06 557.55-6.87 558.42-6.69 559.28-6.2L559.28-6.2Q559.89-5.88 559.89-5.32L559.89-5.32Q559.89-5 559.76-4.42L559.76-4.42Q559.69-4.08 559.52-3.43 559.35-2.78 559.08-2.22L559.08-2.22Q558.93-1.95 558.62-1.71L558.62-1.71Q558.13-1.37 557.04-0.81 555.96-0.24 554.08 0.18 552.2 0.61 549.32 0.61ZM543.31-15.16L543.31-15.16 551.27-15.16Q552.51-15.16 552.51-16.31L552.51-16.31Q552.51-18.04 551.43-19.23 550.34-20.41 548.17-20.41L548.17-20.41Q545.8-20.41 544.69-18.9 543.58-17.38 543.31-15.16ZM572.75-22.17L572.75-20.36 572.85-20.36Q574.68-25.44 579.44-25.44L579.44-25.44Q580.05-25.44 580.44-25.38 580.83-25.32 580.98-25.27L580.98-25.27Q581.34-25.15 581.34-24.71L581.34-24.71 581.34-18.82Q581.34-18.07 580.47-18.41L580.47-18.41Q580.17-18.53 579.62-18.66 579.07-18.8 578.1-18.8L578.1-18.8Q575.58-18.8 574.17-16.96 572.75-15.11 572.75-11.94L572.75-11.94 572.75-1.29Q572.75-0.56 572.45-0.28 572.14 0 571.41 0L571.41 0 566.38 0Q565.65 0 565.34-0.28 565.04-0.56 565.04-1.29L565.04-1.29 565.04-21.75Q565.04-22.34 565.28-22.66L565.28-22.66Q565.79-23.34 566.51-24.05 567.23-24.76 568.28-25.56L568.28-25.56Q568.48-25.71 568.67-25.76 568.87-25.81 569.01-25.81L569.01-25.81Q569.36-25.81 569.7-25.56L569.7-25.56Q571.72-23.97 572.53-22.85L572.53-22.85Q572.75-22.56 572.75-22.17L572.75-22.17ZM591.94 0.61L591.94 0.61Q589.32 0.61 587.6 0.17 585.88-0.27 584.84-0.89 583.81-1.51 583.22-2.03L583.22-2.03Q582.78-2.44 583.12-2.95L583.12-2.95 585.61-6.64Q586.15-7.42 586.83-6.74L586.83-6.74Q587.54-6.05 588.75-5.41 589.96-4.76 591.77-4.76L591.77-4.76Q593.38-4.76 594.42-5.31 595.45-5.86 595.45-6.91L595.45-6.91Q595.45-7.64 594.99-8.11 594.53-8.57 593.35-9.06 592.18-9.55 590.08-10.3L590.08-10.3Q586.98-11.43 585.39-13.01 583.81-14.6 583.81-17.65L583.81-17.65Q583.81-20.46 585.36-22.22 586.91-23.97 589.34-24.79 591.77-25.61 594.4-25.61L594.4-25.61Q597.75-25.61 599.1-24.99 600.46-24.37 600.85-24.02L600.85-24.02Q601.21-23.71 601.36-23.29L601.36-23.29Q601.68-22.34 601.85-20.78L601.85-20.78Q601.95-19.87 601.39-19.58L601.39-19.58Q601.09-19.41 600.46-19.21 599.82-19.02 599.19-18.87 598.55-18.73 598.24-18.73L598.24-18.73Q598.14-18.73 598.03-18.79 597.92-18.85 597.65-19.09L597.65-19.09Q597.33-19.41 596.56-19.82 595.79-20.24 594.45-20.24L594.45-20.24Q593.13-20.24 592.24-19.81 591.35-19.38 591.35-18.31L591.35-18.31Q591.35-17.14 592.49-16.55 593.62-15.97 596.23-15.04L596.23-15.04Q598.28-14.33 599.81-13.49 601.34-12.65 602.17-11.29 603-9.94 603-7.64L603-7.64Q603-4.66 601.37-2.84 599.75-1.03 597.22-0.21 594.7 0.61 591.94 0.61Z" opacity="1" transform="matrix(1,0,0,1,0,0)" fill="black" class="slogan-text-1" id="SvgjsPath2602"></path></svg></g></svg></g></svg></g></svg></g></svg></g><defs><mask></mask></defs></svg><rect width="395.52" height="99.74036389819601" fill="black" stroke="none" visibility="hidden"></rect></g></mask></svg><rect width="395.52" height="99.74036389819601" fill="black" stroke="none" visibility="hidden"></rect></g></mask><linearGradient x1="0.054" x2="0.941" y1="0.5" y2="0.5" id="42345373-ebec-4afe-8cae-f2db7dbc3496"><stop stop-color="#0f3054" offset="0"></stop><stop stop-color="#3b8dcb" offset="0.498"></stop><stop stop-color="#0f3054" offset="1"></stop></linearGradient><rect width="395.52" height="99.74036389819601" fill="url(#42345373-ebec-4afe-8cae-f2db7dbc3496)" mask="url(#664a3857-9561-4f14-b434-bd6b923536eb)" data-fill-palette-color="secondary"></rect></svg><rect width="395.52" height="99.74036389819601" fill="none" stroke="none" visibility="hidden"></rect></g></svg></g></svg>